<?xml version="1.0" standalone="no"?>
<!DOCTYPE svg PUBLIC "-//W3C//DTD SVG 20010904//EN"
 "http://www.w3.org/TR/2001/REC-SVG-20010904/DTD/svg10.dtd">
<svg version="1.0" xmlns="http://www.w3.org/2000/svg"
 width="1200.000000pt" height="1200.000000pt" viewBox="0 0 1200.000000 1200.000000"
 preserveAspectRatio="xMidYMid meet">

<g transform="translate(0.000000,1200.000000) scale(0.100000,-0.100000)"
fill="#000000" stroke="none">
<path d="M6173 9469 c-10 -17 -26 -39 -35 -48 -21 -18 -23 -37 -5 -44 7 -4 6
-6 -4 -6 -9 -1 -20 -8 -23 -17 -5 -13 -3 -14 7 -6 10 8 13 6 13 -10 0 -17 -5
-19 -37 -15 -28 4 -40 0 -53 -15 -17 -19 -18 -19 -31 -1 -8 10 -15 14 -15 8 0
-5 -5 -3 -11 5 -8 12 -9 10 -4 -7 4 -15 2 -21 -9 -19 -9 1 -19 5 -22 9 -4 4
-17 7 -28 6 -21 0 -21 -1 -1 -9 19 -8 19 -9 -2 -9 -15 -1 -23 5 -23 15 0 13
-3 14 -14 5 -10 -8 -16 -9 -21 -1 -3 5 -20 8 -38 5 -32 -6 -50 -15 -29 -15 7
0 12 -3 12 -7 0 -5 -23 -8 -50 -8 -28 0 -50 4 -50 10 0 5 -4 4 -9 -4 -8 -13
-12 -13 -27 0 -11 9 -15 9 -10 2 9 -16 -6 -17 -22 -1 -9 9 -12 8 -12 -6 0 -13
-7 -10 -31 16 -18 18 -29 27 -25 21 5 -9 0 -13 -13 -13 -11 0 -24 7 -29 16 -8
15 -10 15 -15 0 -4 -9 -1 -15 6 -13 7 1 11 -3 10 -9 -1 -7 10 -11 29 -10 18 0
33 -5 36 -13 3 -9 0 -11 -8 -6 -15 9 -100 13 -100 5 0 -3 5 -11 12 -18 9 -9 9
-12 0 -12 -7 0 -12 5 -12 10 0 6 -12 10 -26 10 -14 0 -23 -4 -20 -9 3 -4 -7
-7 -21 -5 -15 1 -34 -1 -44 -6 -9 -5 -32 -12 -50 -14 -43 -5 -69 -16 -69 -27
0 -15 -30 -10 -36 6 -5 12 -8 12 -20 1 -8 -8 -23 -12 -35 -9 -15 4 -20 3 -15
-5 4 -7 2 -12 -3 -12 -6 0 -11 6 -11 13 0 7 -3 8 -8 2 -4 -6 -19 -10 -33 -10
-21 1 -25 -3 -23 -21 1 -15 -2 -21 -10 -18 -7 3 -19 -2 -26 -11 -13 -16 -35
-21 -26 -6 7 11 -24 24 -33 15 -3 -4 0 -9 7 -11 10 -4 8 -8 -5 -18 -13 -10
-22 -10 -31 -3 -9 8 -19 5 -37 -12 -13 -12 -28 -19 -34 -15 -6 3 -11 2 -11 -4
0 -7 -10 -6 -30 0 -16 6 -30 15 -30 21 0 5 -4 6 -10 3 -5 -3 -10 -2 -10 3 0 5
-15 4 -35 -2 -19 -6 -35 -14 -35 -18 0 -5 3 -7 8 -5 8 2 12 -6 12 -28 0 -8 -6
-12 -14 -9 -8 3 -17 -2 -20 -13 -9 -28 -53 -45 -70 -27 -19 18 -30 18 -23 0 3
-8 -1 -17 -9 -20 -8 -3 -12 -2 -9 3 3 6 -7 8 -22 6 -40 -5 -40 -6 -18 -14 19
-8 18 -9 -7 -21 -22 -11 -30 -11 -43 0 -13 11 -15 10 -11 -1 8 -20 -15 -45
-43 -46 -13 -1 -29 -7 -35 -13 -8 -8 -6 -9 9 -4 18 7 18 6 6 -9 -7 -9 -23 -17
-35 -17 -17 0 -18 -2 -6 -10 13 -8 13 -10 -2 -10 -9 0 -18 -5 -20 -10 -2 -6
-13 -12 -26 -13 -12 0 -22 -7 -22 -13 0 -7 -14 -15 -30 -19 -17 -4 -28 -11
-24 -16 3 -5 -2 -9 -11 -9 -9 0 -14 4 -11 9 4 5 -3 7 -15 4 -15 -4 -19 -11
-15 -27 l5 -21 -18 22 c-19 23 -34 19 -39 -12 -2 -11 -12 -28 -22 -37 -16 -15
-18 -15 -30 10 -8 15 -13 30 -12 35 1 4 -2 7 -8 7 -5 0 -10 -7 -10 -15 0 -8
-5 -15 -11 -15 -5 0 -8 -4 -4 -9 3 -5 0 -13 -6 -17 -7 -4 -9 -3 -6 3 4 6 0 16
-8 23 -8 7 -15 19 -15 26 0 8 -5 14 -12 14 -6 0 -8 -3 -5 -6 3 -4 1 -16 -5
-27 -9 -17 -8 -19 6 -14 21 8 20 -2 -1 -25 -9 -10 -11 -18 -5 -18 13 0 5 -28
-15 -51 -7 -9 -11 -18 -8 -20 2 -3 -7 -6 -20 -7 -14 -1 -25 3 -25 8 0 6 7 10
16 10 14 0 14 2 0 15 -8 8 -19 15 -25 15 -6 0 -12 5 -12 10 -1 6 -3 15 -4 20
-1 6 -3 12 -4 15 -2 10 -29 -20 -28 -30 1 -5 -6 -9 -16 -8 -17 1 -17 0 2 -18
25 -23 50 -27 31 -4 -9 10 -9 15 -1 15 6 0 11 -5 11 -11 0 -5 5 -7 11 -3 8 4
8 0 0 -15 -9 -16 -9 -21 0 -21 8 0 8 -4 1 -12 -6 -7 -10 -17 -10 -23 0 -5 -6
-11 -12 -13 -9 -3 -9 1 -1 17 7 11 8 21 3 21 -6 0 -12 -9 -15 -21 -3 -12 -10
-18 -16 -15 -5 4 -12 2 -16 -4 -3 -5 -2 -10 3 -10 5 0 9 -7 9 -16 0 -11 -7
-14 -24 -9 -31 7 -48 -2 -33 -20 9 -10 6 -15 -11 -20 -17 -6 -19 -9 -8 -16 11
-6 11 -11 2 -20 -9 -9 -16 -9 -28 1 -20 16 -32 5 -15 -15 10 -12 9 -16 -3 -21
-9 -3 -13 -12 -10 -20 3 -8 0 -14 -6 -14 -6 0 -11 9 -11 21 0 11 -4 18 -9 14
-5 -3 -8 -18 -6 -34 3 -25 1 -28 -21 -25 -24 2 -32 -10 -14 -21 16 -10 -8 -46
-28 -43 -11 2 -18 -5 -20 -19 -2 -13 -10 -23 -18 -23 -8 0 -14 -4 -14 -10 0
-5 -7 -10 -15 -10 -8 0 -15 -6 -15 -13 0 -8 -14 -26 -31 -41 -29 -26 -31 -27
-45 -9 -13 17 -14 17 -8 0 5 -12 -1 -23 -15 -34 -12 -8 -20 -21 -17 -28 6 -17
-21 -28 -30 -13 -5 7 -2 8 7 3 11 -6 12 -5 2 6 -7 7 -13 21 -13 32 0 11 -5 16
-12 13 -7 -3 -20 -9 -30 -12 -25 -9 -28 -41 -6 -61 35 -31 41 -53 23 -73 -9
-10 -23 -16 -31 -13 -9 3 -14 0 -12 -8 2 -8 -7 -15 -20 -17 -12 -2 -22 -9 -21
-15 3 -24 -1 -38 -10 -33 -5 3 -14 -8 -21 -24 -7 -16 -15 -28 -19 -26 -4 3
-13 1 -21 -5 -13 -7 -12 -9 2 -9 25 0 11 -29 -18 -36 -18 -5 -29 0 -42 16 -16
19 -19 20 -19 6 0 -9 14 -24 31 -33 17 -9 25 -18 18 -20 -6 -3 -10 -9 -6 -14
3 -5 0 -9 -7 -9 -6 0 -9 -8 -6 -20 3 -11 0 -23 -5 -27 -7 -3 -8 -1 -4 5 12 19
-3 14 -27 -9 -12 -12 -15 -19 -7 -15 13 7 13 6 0 -6 -9 -8 -14 -26 -12 -44 2
-17 -3 -38 -11 -45 -7 -8 -11 -21 -9 -29 5 -13 3 -13 -11 -2 -14 12 -17 10
-23 -12 -3 -14 -15 -28 -25 -31 -11 -4 -16 -11 -13 -17 5 -8 1 -9 -10 -5 -10
4 -15 3 -11 -3 3 -6 13 -10 21 -10 20 0 17 -14 -7 -36 -11 -10 -18 -26 -16
-35 3 -10 -1 -20 -9 -23 -9 -3 -14 1 -14 13 0 14 -6 18 -30 15 -19 -2 -32 2
-38 13 -11 19 -25 2 -16 -20 3 -9 17 -14 37 -13 30 1 32 -1 33 -31 0 -18 4
-36 9 -40 4 -5 5 -2 1 5 -4 6 -2 12 4 12 16 0 7 -21 -14 -34 -13 -9 -20 -7
-32 9 -15 19 -15 19 -9 -7 6 -25 5 -28 -19 -28 -23 0 -26 4 -24 26 2 15 -2 29
-9 31 -7 3 -9 -3 -6 -16 4 -15 1 -21 -12 -21 -15 0 -15 -1 1 -17 10 -10 28
-18 40 -18 13 -1 26 -4 30 -7 8 -9 -35 -117 -56 -141 -16 -16 -17 -16 -17 0 0
10 4 24 10 31 7 8 5 12 -7 12 -9 0 -16 -6 -16 -14 0 -8 -3 -21 -6 -29 -3 -10
2 -18 15 -22 12 -3 19 -11 15 -16 -3 -6 -12 -8 -20 -5 -8 3 -14 -1 -14 -10 0
-10 6 -14 15 -10 24 9 17 -12 -7 -25 -14 -8 -18 -14 -11 -16 10 -4 10 -10 2
-24 -5 -11 -8 -23 -5 -27 3 -4 1 -14 -3 -21 -5 -7 -5 -30 -1 -51 4 -22 3 -41
-1 -42 -5 -2 -10 -13 -12 -25 -4 -29 -26 -53 -43 -46 -8 3 -14 0 -14 -6 0 -10
14 -15 33 -12 5 1 6 -3 2 -8 -3 -6 -12 -8 -20 -5 -9 4 -12 -1 -10 -13 1 -10
-4 -29 -12 -42 -8 -13 -10 -21 -5 -17 17 10 20 -17 6 -53 -17 -40 -18 -54 -3
-46 6 4 5 -2 -2 -13 -7 -12 -17 -19 -21 -16 -4 3 -16 0 -25 -6 -16 -10 -15
-11 5 -7 12 3 22 1 22 -5 0 -5 4 -7 9 -4 5 3 11 -4 14 -16 4 -12 2 -25 -2 -28
-5 -3 -8 -16 -7 -30 1 -14 -4 -30 -11 -35 -8 -6 -14 -26 -16 -45 -1 -19 -6
-38 -12 -42 -7 -5 -6 -15 3 -28 10 -16 10 -20 0 -18 -7 2 -11 -4 -9 -12 2 -8
5 -26 6 -40 2 -14 4 -27 5 -30 1 -3 1 -9 0 -15 -2 -5 -2 -25 -1 -43 1 -19 -2
-31 -8 -28 -5 3 -11 -1 -14 -9 -4 -9 -1 -12 7 -9 7 3 15 -3 18 -13 6 -22 -1
-45 -11 -39 -4 3 -8 -1 -8 -9 0 -8 4 -12 9 -9 4 3 8 3 8 0 0 -12 -25 -62 -35
-68 -6 -5 -3 -8 8 -8 9 0 17 -3 18 -7 0 -5 2 -24 3 -43 1 -19 6 -46 10 -59 6
-16 5 -21 -3 -17 -6 4 -11 0 -11 -9 0 -9 5 -13 10 -10 14 8 13 -18 -1 -32 -6
-6 -19 -9 -28 -6 -14 4 -14 3 -1 -6 8 -6 11 -11 5 -11 -5 0 -5 -4 2 -8 10 -6
17 -37 26 -127 1 -14 -4 -20 -15 -19 -10 1 -18 -3 -18 -8 0 -6 9 -8 20 -5 16
4 20 0 20 -19 0 -13 -4 -24 -10 -24 -5 0 -7 6 -5 13 3 7 -4 12 -19 12 -21 0
-23 -3 -13 -20 5 -11 16 -24 23 -30 10 -7 11 -14 3 -25 -9 -13 -10 -12 -5 3 3
9 1 17 -4 17 -11 0 -13 -12 -10 -47 2 -25 -18 -30 -40 -10 -8 6 -7 3 3 -9 9
-11 14 -25 10 -29 -5 -5 -1 -4 9 3 16 13 30 4 34 -23 0 -5 2 -16 2 -23 3 -21
22 -3 23 21 0 21 1 21 9 2 8 -19 9 -19 9 -1 1 11 4 16 8 13 3 -4 6 -28 5 -54
0 -27 2 -42 5 -35 2 6 9 12 14 12 6 0 6 -7 0 -18 -7 -13 -6 -27 4 -46 8 -14
11 -25 7 -22 -5 3 -14 -4 -20 -15 -12 -19 -11 -19 8 -9 25 13 40 6 40 -20 0
-10 5 -22 10 -25 8 -5 8 -11 1 -19 -6 -7 -8 -16 -4 -19 3 -4 -2 -9 -11 -13 -9
-3 -13 -10 -10 -15 3 -5 3 -9 -1 -9 -3 0 -10 10 -15 23 -7 18 -9 18 -9 4 -1
-10 -5 -16 -10 -12 -5 3 -13 -4 -16 -15 -5 -17 -9 -19 -21 -9 -8 6 -17 9 -21
6 -3 -4 2 -9 11 -13 9 -3 13 -10 10 -15 -3 -5 2 -6 10 -3 9 3 16 10 16 16 0 5
5 6 12 2 6 -4 8 -3 4 4 -3 6 -2 13 4 17 5 3 10 -1 10 -9 0 -9 6 -16 13 -16 20
0 34 -14 41 -40 5 -17 4 -21 -2 -11 -8 11 -11 11 -16 0 -3 -8 -3 -4 -1 8 3 12
1 24 -5 28 -6 4 -10 3 -9 -2 5 -29 -2 -34 -20 -14 -12 14 -25 20 -32 15 -9 -5
-5 -10 10 -16 14 -5 21 -14 18 -23 -4 -8 -1 -12 6 -9 16 6 56 -25 41 -32 -6
-3 -20 -12 -30 -20 -10 -9 -13 -13 -6 -9 6 3 12 0 12 -7 1 -7 12 0 25 17 18
21 21 31 12 37 -9 6 -9 8 0 8 19 0 34 -35 21 -48 -8 -8 -5 -9 11 -5 15 4 21 1
21 -11 0 -9 -6 -16 -12 -16 -9 0 -8 -3 2 -10 8 -5 15 -23 16 -39 1 -17 9 -37
18 -46 9 -9 16 -25 16 -35 0 -10 4 -21 9 -24 5 -3 11 -17 13 -31 3 -13 1 -22
-3 -19 -5 3 -9 12 -9 21 0 13 -3 13 -15 3 -12 -10 -16 -9 -21 3 -3 10 -13 13
-27 9 -20 -5 -21 -4 -7 14 14 17 13 18 -1 7 -9 -7 -20 -9 -25 -5 -4 4 -3 0 4
-9 13 -17 7 -49 -9 -49 -5 0 -9 -5 -9 -10 0 -6 11 -3 24 7 13 10 22 21 19 26
-2 4 1 7 6 7 6 0 11 -5 11 -11 0 -5 4 -8 9 -4 14 8 81 -62 81 -86 0 -11 7 -22
15 -25 8 -4 15 -11 15 -18 0 -6 9 -29 20 -50 10 -22 17 -43 14 -48 -3 -5 -2
-7 3 -6 4 2 9 0 10 -5 2 -4 10 -21 18 -37 12 -23 13 -30 3 -30 -7 -1 -1 -8 15
-16 29 -15 37 -30 12 -20 -26 10 -16 -20 10 -32 14 -7 30 -23 37 -37 6 -14 15
-25 19 -25 4 0 10 -13 14 -29 5 -22 10 -28 26 -24 14 4 19 0 20 -13 0 -11 2
-36 5 -56 3 -22 0 -38 -6 -38 -5 0 -10 3 -10 8 0 4 -12 12 -26 19 -22 10 -24
10 -14 -3 10 -11 10 -14 -1 -14 -11 0 -12 -2 -1 -9 17 -10 44 -62 37 -70 -4
-3 -10 1 -15 9 -8 13 -10 13 -10 -1 0 -10 10 -19 24 -21 26 -5 27 4 8 39 -14
25 -3 37 24 26 10 -4 15 -2 11 4 -3 5 0 10 8 10 8 0 13 -2 10 -5 -2 -3 14 -18
35 -33 38 -28 44 -40 41 -84 -2 -16 0 -17 8 -6 7 11 10 9 13 -10 1 -13 -4 -32
-12 -42 -14 -16 -15 -16 -22 0 -5 15 -7 14 -7 -4 -1 -17 5 -23 19 -23 11 0 20
6 20 14 0 8 7 16 15 20 9 3 15 0 15 -10 0 -10 6 -14 14 -11 19 8 12 -34 -8
-49 -12 -9 -12 -12 4 -22 16 -10 18 -9 15 8 -2 11 0 22 4 24 9 6 12 -20 5 -52
-3 -14 -9 -20 -17 -16 -7 4 -8 3 -4 -1 12 -13 38 -15 59 -4 14 7 20 6 24 -5 3
-8 14 -18 25 -21 13 -5 18 -13 15 -29 -3 -15 1 -23 10 -23 8 0 14 4 14 9 0 4
-5 8 -11 8 -5 0 -7 5 -3 11 10 17 51 -32 48 -59 -1 -12 2 -20 7 -16 5 3 9 -3
9 -12 0 -10 2 -15 6 -12 3 3 17 -6 33 -21 20 -20 25 -30 18 -44 -11 -23 1 -37
13 -17 7 10 10 11 10 3 0 -7 5 -13 11 -13 15 0 36 -23 32 -36 -2 -6 10 -14 27
-18 18 -3 29 -10 25 -16 -3 -5 -1 -10 5 -10 7 0 22 -8 35 -19 18 -13 21 -21
12 -30 -7 -7 -8 -11 0 -11 6 0 16 7 23 15 11 13 14 13 25 -2 10 -13 10 -22 3
-31 -9 -11 -13 -11 -19 0 -7 10 -9 10 -9 1 0 -7 -7 -10 -15 -7 -8 4 -15 1 -15
-5 0 -6 7 -11 15 -11 8 0 15 -6 15 -12 0 -7 7 -2 16 10 19 28 31 28 39 1 5
-15 9 -18 15 -9 5 9 11 6 22 -9 8 -11 17 -18 20 -15 3 3 10 -8 16 -24 7 -22 7
-34 -1 -43 -7 -7 -2 -5 9 4 17 14 23 15 27 5 4 -9 6 -10 6 -1 1 10 7 10 26 1
13 -6 22 -15 19 -19 -3 -5 3 -9 14 -9 19 0 52 -29 52 -46 0 -5 -4 -3 -9 4 -6
10 -10 7 -13 -12 -6 -33 15 -35 30 -3 6 12 11 16 11 8 1 -8 8 -19 18 -26 11
-8 13 -14 5 -19 -7 -4 -12 -2 -12 3 0 6 -5 11 -11 11 -6 0 -9 -7 -6 -15 4 -8
2 -17 -3 -20 -6 -4 -10 -12 -9 -18 0 -9 2 -9 6 1 9 22 24 13 17 -12 -3 -13 -1
-27 4 -30 6 -3 9 2 7 11 -1 10 2 24 8 30 6 9 5 13 -4 14 -8 1 2 5 21 8 41 8
63 3 53 -12 -4 -6 -1 -7 7 -2 7 4 15 2 20 -4 4 -7 21 -13 38 -13 18 -1 32 -5
32 -10 0 -4 3 -7 8 -6 12 2 60 -20 68 -33 4 -8 3 -10 -4 -5 -7 4 -12 2 -12 -4
0 -7 8 -9 22 -5 18 6 20 4 14 -11 -6 -15 -4 -16 5 -7 15 15 59 -11 60 -36 0
-10 2 -11 6 -3 8 20 25 13 18 -8 -7 -22 5 -26 22 -9 9 9 20 8 45 -4 18 -9 26
-17 18 -18 -8 0 -4 -4 10 -8 15 -4 24 -14 24 -24 -2 -19 12 -23 18 -5 3 7 12
4 27 -11 12 -12 21 -16 19 -9 -3 14 3 18 25 18 8 0 7 -4 -3 -11 -12 -8 -12
-10 5 -8 11 1 25 0 30 -1 6 -1 19 -3 30 -4 11 0 19 -7 17 -13 -1 -7 7 -13 17
-13 10 0 22 -7 25 -16 3 -8 10 -13 15 -9 5 3 16 -4 24 -16 12 -16 27 -21 71
-23 31 -1 53 2 49 7 -10 17 42 -16 65 -41 19 -20 26 -22 33 -11 7 12 10 12 18
1 4 -8 12 -14 17 -14 5 1 8 -5 6 -13 -1 -7 2 -16 8 -20 12 -8 13 -25 1 -25 -5
0 -11 10 -14 22 -4 12 -9 19 -13 15 -3 -3 -3 -14 1 -24 5 -10 7 -21 7 -25 -1
-5 2 -8 8 -8 5 0 10 -6 10 -14 0 -8 5 -18 12 -22 7 -4 8 -3 4 5 -5 7 6 17 28
26 22 9 36 22 36 33 0 9 5 24 11 32 9 13 10 12 5 -2 -3 -10 0 -20 6 -24 7 -5
8 -2 3 6 -6 10 -3 12 13 8 12 -4 20 -2 16 3 -8 14 6 11 22 -5 10 -10 10 -16 2
-18 -7 -3 -9 -14 -3 -34 l8 -29 10 32 10 32 18 -22 c10 -12 18 -17 19 -10 0 6
10 9 23 7 l22 -5 -22 10 c-24 11 -30 26 -14 36 6 3 14 -2 19 -11 8 -15 10 -14
16 2 5 13 9 15 15 6 4 -6 24 -13 44 -14 24 -2 36 -7 33 -15 -3 -6 5 -18 17
-26 19 -12 24 -12 35 -1 12 13 47 12 94 -2 14 -4 16 -1 11 12 -4 12 -2 15 8
12 8 -3 13 -12 13 -21 -1 -9 3 -14 8 -11 5 3 7 12 4 20 -5 12 3 14 38 12 24
-2 42 -6 40 -10 -2 -3 10 -9 28 -13 18 -4 41 -9 52 -12 12 -3 16 -1 12 6 -5 7
-1 9 8 5 11 -4 16 0 16 10 0 20 19 21 26 1 4 -8 11 -12 16 -8 6 3 31 8 56 10
38 3 43 1 38 -14 -6 -15 -5 -15 13 1 15 14 24 15 38 7 17 -10 17 -10 1 -11
-18 0 -23 -11 -11 -23 3 -4 12 -2 20 4 7 6 13 8 13 5 0 -4 9 -2 20 4 17 9 22
7 30 -15 5 -14 15 -25 21 -25 8 0 7 6 -2 17 -8 9 -9 14 -2 10 6 -4 13 -2 15 3
2 6 12 12 21 14 10 1 22 8 27 16 6 10 17 9 52 -9 23 -12 36 -16 28 -9 -19 17
-24 39 -7 32 8 -3 26 0 41 6 26 9 28 9 23 -10 -3 -11 -1 -20 4 -20 5 0 9 11 9
25 0 15 6 25 15 25 10 0 14 -9 11 -30 -2 -20 1 -29 8 -27 6 2 10 14 9 26 -2
12 1 20 6 17 5 -4 11 0 14 6 3 10 7 10 20 -1 10 -7 17 -10 17 -6 0 4 6 3 13
-2 15 -13 47 -13 47 -1 0 5 5 6 10 3 6 -3 10 -1 10 5 0 6 5 8 10 5 6 -3 10 0
10 7 1 9 5 7 14 -4 15 -20 27 -14 19 10 -4 15 -3 15 6 2 6 -8 8 -23 5 -34 -4
-11 -2 -16 4 -12 5 3 13 -1 16 -10 3 -8 11 -12 16 -9 6 4 9 12 7 18 -2 7 3 21
12 31 12 14 13 20 4 23 -7 3 -13 9 -13 14 0 7 6 7 17 0 12 -6 26 -5 45 5 17 9
29 10 33 4 3 -6 13 -10 22 -10 13 0 14 2 2 17 -8 9 -9 14 -2 10 6 -4 18 0 26
8 18 17 53 20 62 5 10 -16 25 -12 19 5 -4 11 1 15 17 16 53 1 81 9 110 30 18
12 42 23 55 23 13 1 26 5 30 9 4 3 16 1 28 -5 11 -6 18 -7 13 -3 -11 13 73 39
85 27 13 -13 38 -4 38 12 0 7 16 20 36 29 l35 17 -6 -22 c-6 -19 -5 -21 6 -11
16 16 30 17 27 2 -2 -6 3 -14 11 -17 10 -3 12 0 8 11 -5 12 2 18 28 23 19 3
35 10 35 16 0 5 -4 6 -10 3 -5 -3 -10 -1 -10 5 0 6 -4 8 -10 5 -16 -10 -11 4
8 23 10 10 25 16 33 14 8 -3 11 -1 7 3 -9 9 60 64 81 65 8 0 23 8 34 17 19 18
20 17 13 -11 -6 -26 -6 -28 9 -16 9 7 13 20 10 28 -3 9 0 12 8 9 7 -3 19 4 26
15 7 11 19 17 27 14 8 -3 30 11 52 33 30 30 42 37 55 29 13 -7 17 -5 17 7 0 9
21 36 46 61 38 36 51 43 72 37 20 -5 24 -3 19 10 -6 17 31 47 59 47 9 0 23 8
31 18 8 9 12 11 8 5 -20 -40 61 29 121 103 15 18 15 18 11 -3 -4 -19 -1 -22
24 -20 18 1 31 9 35 20 3 9 9 15 14 12 4 -3 6 4 3 15 -7 25 -15 25 -30 1 -10
-15 -10 -21 0 -24 9 -4 9 -6 0 -6 -18 -1 -27 20 -13 29 10 6 9 9 -1 13 -10 4
-10 6 2 6 9 1 19 10 22 21 3 13 11 18 20 14 11 -4 14 0 11 13 -4 16 36 72 54
74 4 0 15 2 24 4 10 2 21 -2 25 -7 3 -7 1 -8 -5 -4 -8 5 -10 2 -6 -8 10 -25
26 -6 22 25 -3 15 -1 26 3 24 4 -3 10 6 13 20 4 14 11 25 16 25 6 0 10 15 11
33 1 30 2 30 8 7 6 -22 8 -23 14 -7 4 10 11 15 17 12 6 -4 10 5 10 19 0 28 18
34 39 14 10 -11 11 -10 6 4 -5 13 -2 18 9 18 14 0 21 18 17 43 -1 5 4 5 10 1
9 -5 10 -2 5 11 -5 15 -4 16 8 5 14 -11 14 -14 1 -27 -20 -19 -19 -43 1 -43
11 0 14 5 10 16 -3 9 1 25 9 37 8 12 15 16 15 9 0 -6 4 -12 8 -12 5 0 9 6 9
14 0 8 -3 15 -6 14 -23 -2 -41 4 -36 12 4 6 11 7 17 4 6 -4 8 -2 5 3 -9 14 19
37 33 28 5 -3 10 -13 10 -21 0 -8 10 -14 23 -14 13 0 28 -5 35 -12 9 -9 12 -9
12 0 0 7 -7 15 -15 18 -8 4 -15 10 -15 16 0 5 5 6 10 3 6 -3 10 -2 10 4 0 5
-5 13 -12 17 -8 5 -6 10 8 15 36 14 46 11 34 -11 -9 -16 -8 -20 5 -20 10 0 15
9 15 28 0 32 -15 59 -24 44 -8 -14 -36 -9 -46 8 -6 9 0 20 16 32 13 11 24 25
24 33 0 7 8 16 17 19 14 6 15 9 4 15 -7 5 -12 11 -12 15 2 12 36 43 44 39 4
-2 7 1 7 6 0 6 7 11 16 11 11 0 14 6 9 20 -8 25 3 26 22 3 13 -16 14 -15 11
13 -4 32 16 65 25 41 3 -9 8 -9 16 -1 10 9 8 15 -4 28 -23 22 -12 61 26 97 25
23 28 32 20 48 -9 16 -8 18 8 14 15 -4 19 0 16 14 -1 10 -7 17 -13 16 -16 -3
-9 31 8 38 8 3 15 10 15 15 0 18 16 33 29 28 8 -3 17 -1 20 4 3 5 -3 12 -14
15 -27 7 -25 18 6 52 14 15 27 37 29 47 8 41 17 58 28 57 7 -1 20 2 31 6 13 6
21 3 28 -8 5 -10 14 -17 20 -17 9 0 9 3 0 12 -7 7 -12 20 -12 29 0 10 -6 19
-12 22 -7 2 -10 8 -6 12 4 4 14 2 22 -4 9 -8 16 -9 21 -2 3 6 19 14 36 18 16
5 29 12 28 17 0 5 5 13 13 17 10 7 9 9 -4 9 -10 0 -18 -4 -18 -10 0 -5 -13 -7
-29 -5 -25 3 -29 0 -26 -17 3 -12 0 -18 -8 -15 -7 2 -11 13 -9 23 2 15 1 16
-6 5 -6 -7 -16 -11 -23 -9 -9 3 -3 10 16 21 17 9 23 17 15 17 -10 1 -8 4 5 9
24 10 43 2 24 -10 -10 -6 -10 -9 -2 -9 19 0 27 21 12 31 -11 7 -9 9 6 9 17 1
16 3 -5 11 -14 6 -35 8 -47 6 -20 -4 -21 -2 -10 17 6 12 10 26 9 32 -1 6 8 19
20 30 19 17 21 17 15 2 -4 -10 -2 -18 3 -18 6 0 10 14 10 30 0 17 5 30 11 30
5 0 7 5 4 10 -4 6 -11 8 -16 5 -5 -4 -9 -1 -9 4 0 6 9 11 20 11 11 0 20 5 20
11 0 5 -4 7 -10 4 -5 -3 -10 -1 -10 4 0 6 5 11 11 11 6 0 8 16 6 40 -3 26 1
44 9 51 8 6 11 15 8 20 -3 5 0 9 6 9 7 0 9 8 5 20 -3 11 1 30 10 44 9 14 14
30 10 36 -8 13 11 13 38 -1 l22 -12 -20 21 c-11 11 -22 20 -25 20 -19 0 -23 4
-11 11 17 11 26 81 11 81 -8 0 -8 6 0 20 6 11 7 20 3 20 -4 0 -1 5 7 10 13 8
12 10 -3 10 -10 0 -15 4 -12 10 4 6 13 5 25 -2 14 -9 16 -15 8 -25 -8 -10 -7
-12 5 -8 15 7 32 53 22 63 -3 3 -5 -2 -5 -10 0 -13 -4 -14 -24 -5 -18 9 -22
16 -15 28 4 9 5 19 2 23 -3 3 -1 6 6 6 8 0 11 7 7 15 -3 10 1 15 12 15 12 0
13 3 5 8 -13 8 -14 52 -1 52 13 0 9 48 -4 53 -9 3 -7 11 7 27 l20 23 -25 -7
c-14 -3 -19 -3 -12 0 6 3 10 10 6 15 -3 5 6 14 20 20 14 7 23 16 20 20 -8 13
10 11 24 -3 8 -8 12 -8 12 -1 0 6 -13 16 -29 21 -26 9 -28 8 -24 -9 4 -13 0
-19 -11 -19 -9 0 -17 5 -17 10 -1 6 -2 16 -3 23 -1 6 4 18 11 25 7 8 11 17 8
22 -3 5 1 11 7 14 10 5 10 7 1 12 -7 3 -13 15 -13 26 0 16 5 19 25 16 13 -3
22 -2 20 3 -3 4 1 10 7 13 7 3 1 3 -13 1 -22 -3 -26 1 -26 21 0 20 2 22 18 13
15 -7 17 -6 13 6 -3 8 -10 12 -15 9 -17 -10 -23 29 -6 41 15 11 15 13 0 28
-14 14 -14 18 -2 33 12 16 12 17 -3 11 -13 -5 -18 -1 -18 13 0 11 5 20 11 20
5 0 8 -4 5 -9 -9 -14 23 -6 37 9 10 12 9 12 -5 1 -16 -12 -18 -11 -18 4 0 11
-5 15 -14 12 -8 -3 -17 1 -20 9 -3 8 -2 14 3 14 5 0 12 11 15 25 4 14 13 25
21 25 9 0 12 6 9 15 -4 8 -9 13 -14 10 -4 -2 -16 2 -26 11 -18 14 -18 15 3 5
14 -7 24 -8 28 -1 3 5 -1 10 -11 10 -14 0 -15 2 -3 17 12 14 12 15 0 9 -10 -7
-12 -2 -6 22 5 23 2 33 -12 41 -14 8 -15 10 -3 11 9 0 23 9 32 19 16 19 16 20
-3 26 -11 4 -23 4 -26 1 -4 -3 2 -6 12 -6 15 0 16 -3 7 -12 -17 -17 -40 -18
-46 -3 -3 8 1 19 9 25 7 6 12 19 10 28 -1 9 2 20 7 23 5 3 2 9 -7 12 -11 5
-14 3 -9 -6 5 -9 4 -9 -6 0 -10 9 -10 16 -2 26 9 10 8 19 -4 35 -8 12 -16 36
-16 52 -1 17 -6 30 -12 30 -6 0 -11 18 -11 39 -1 32 4 42 22 50 13 6 23 16 23
23 0 9 -3 10 -8 2 -10 -16 -44 -14 -38 2 3 8 -2 20 -10 29 -9 9 -13 22 -10 30
3 8 0 15 -6 15 -12 0 -37 30 -37 45 -1 6 8 -1 19 -15 l19 -25 -4 25 c-3 14
-13 31 -22 38 -20 14 -20 21 -2 33 10 6 9 12 -5 28 -10 11 -15 25 -10 32 4 7
3 10 -3 6 -6 -4 -15 11 -22 33 -6 22 -16 40 -21 40 -6 0 -10 9 -10 20 0 11 7
20 15 20 8 0 15 5 15 10 0 6 -5 10 -11 10 -5 0 -8 4 -5 9 7 11 -13 9 -34 -3
-11 -7 -12 -6 -4 3 13 15 6 73 -9 64 -5 -3 -7 -1 -4 4 4 6 -3 22 -14 37 -19
24 -19 25 -2 20 17 -5 17 -5 0 6 -9 6 -15 16 -11 21 3 5 2 8 -3 7 -4 -2 -8 -1
-8 2 0 3 -8 16 -18 30 -20 28 -24 53 -4 26 12 -17 14 -16 25 8 10 21 8 26 -8
31 -10 3 -17 12 -14 19 3 7 -5 21 -16 31 -15 14 -19 15 -15 4 4 -10 0 -16 -10
-16 -13 0 -16 8 -15 32 1 3 -6 13 -15 21 -16 17 -21 59 -6 49 6 -3 9 4 8 15
-1 20 -2 20 -19 -2 -12 -16 -18 -18 -17 -8 0 8 6 24 14 34 23 30 18 39 -7 14
-21 -21 -23 -21 -26 -5 -2 10 2 25 10 34 9 12 9 15 1 9 -7 -4 -13 -3 -13 2 0
6 -16 26 -35 45 -19 19 -35 40 -35 46 0 5 -9 18 -19 28 -12 12 -17 23 -12 31
12 19 1 62 -15 62 -8 0 -14 5 -14 10 0 6 -6 10 -12 10 -7 -1 -2 -10 11 -20 13
-11 17 -20 10 -20 -10 0 -10 -3 -1 -12 17 -17 15 -29 -3 -22 -8 4 -15 12 -15
20 0 8 -3 14 -7 14 -5 0 -19 9 -33 20 l-25 19 24 20 c13 11 29 18 35 14 6 -3
6 0 -1 7 -10 11 -16 10 -33 -5 -19 -17 -22 -18 -37 -2 -10 9 -12 17 -6 17 6 0
14 -6 16 -12 4 -10 8 -10 15 1 11 15 -16 63 -30 54 -4 -2 -5 4 -1 14 6 16 5
16 -10 5 -14 -12 -17 -9 -23 25 -4 21 -9 32 -11 26 -7 -21 -23 -15 -23 8 0 11
4 18 9 15 5 -3 11 3 14 13 3 12 -1 22 -10 25 -24 10 -35 7 -28 -6 4 -7 -4 -2
-16 12 -15 17 -20 19 -16 8 4 -10 2 -18 -3 -18 -6 0 -10 6 -10 13 0 8 -11 20
-25 27 -13 7 -23 16 -23 19 3 12 -14 51 -20 47 -4 -2 -13 2 -20 10 -7 8 -10
14 -6 14 4 0 -3 12 -17 26 -18 20 -20 25 -7 22 17 -3 18 -1 18 27 0 12 -5 13
-17 7 -22 -12 -43 -5 -43 14 0 8 -5 14 -11 14 -5 0 -7 -5 -3 -11 3 -6 -11 0
-32 14 -32 20 -39 30 -39 55 1 27 -1 29 -18 20 -23 -12 -42 9 -26 29 15 18 -2
45 -21 33 -13 -8 -12 -10 3 -10 17 0 17 -1 2 -17 -14 -13 -18 -14 -25 -3 -5 8
-7 17 -4 21 2 4 -3 9 -11 13 -20 7 -19 35 2 58 10 11 13 19 8 18 -28 -6 -55 2
-55 15 0 8 -4 15 -10 15 -5 0 -10 -9 -10 -20 0 -13 7 -20 20 -20 13 0 20 -7
20 -19 0 -25 -16 -36 -24 -16 -3 8 -12 15 -21 15 -8 0 -14 3 -13 8 2 4 -18 28
-44 53 -31 30 -54 44 -67 42 -16 -2 -21 3 -21 18 0 13 4 18 13 13 9 -5 9 -4 0
6 -9 10 -16 10 -25 2 -9 -7 -19 -8 -28 -1 -10 5 -11 12 -5 17 12 9 13 47 1 59
-5 4 -6 3 -3 -3 4 -7 0 -14 -8 -18 -8 -3 -12 -12 -9 -21 3 -8 1 -15 -6 -15 -6
0 -9 4 -6 9 3 5 -8 14 -25 21 -17 7 -28 18 -25 25 3 9 -2 11 -17 7 -12 -3 -19
-1 -15 3 4 4 -14 18 -40 31 -26 12 -58 34 -71 48 -13 15 -35 29 -50 33 -14 3
-32 15 -39 25 -7 10 -19 18 -27 18 -9 0 -12 6 -9 15 4 8 10 15 16 15 5 0 7 -4
4 -9 -3 -5 1 -11 9 -15 8 -3 14 -2 14 2 -3 18 2 26 10 14 6 -10 10 -9 14 7 4
18 2 20 -19 15 -23 -6 -24 -6 -9 22 22 42 19 59 -16 88 -45 38 -73 34 -105
-14 -20 -30 -30 -38 -36 -28 -6 9 -7 6 -3 -9 6 -23 -9 -40 -21 -22 -4 8 -9 7
-15 -2 -6 -10 -9 -5 -9 15 0 26 -2 28 -12 14 -19 -22 -52 -32 -44 -13 3 9 0
15 -10 15 -8 0 -12 5 -8 11 5 8 1 8 -13 0 -21 -10 -43 2 -43 23 0 6 4 5 9 -3
6 -9 11 -10 15 -3 4 6 -3 16 -14 22 -15 8 -20 8 -20 -1 0 -8 -6 -7 -17 3 -10
9 -26 14 -36 13 -10 -2 -14 1 -10 8 4 6 0 8 -9 4 -9 -3 -20 -1 -24 3 -5 5 -21
11 -34 13 -14 2 -29 13 -35 25 -5 12 -15 22 -22 22 -7 0 -13 3 -13 8 0 4 -16
24 -35 46 -19 21 -32 42 -29 47 3 5 0 9 -5 9 -16 0 -14 -6 15 -56 14 -24 30
-42 35 -38 5 3 6 -1 3 -9 -4 -12 -13 -13 -42 -5 -20 5 -44 12 -52 15 -8 4 -25
7 -37 8 -12 0 -25 4 -28 7 -4 4 -18 4 -31 2 -20 -4 -24 0 -24 21 0 26 -14 33
-26 13 -5 -7 -3 -8 6 -3 9 6 11 4 5 -5 -7 -11 -12 -9 -23 8 -12 19 -16 20 -29
7 -17 -17 -33 -20 -33 -5 0 6 8 10 18 10 13 0 14 2 4 9 -8 4 -13 11 -12 15 3
14 -8 31 -16 23 -5 -4 -3 -12 4 -16 9 -6 7 -12 -8 -26 -20 -18 -21 -18 -36 1
-8 10 -12 12 -8 4 6 -12 5 -13 -7 -3 -19 16 -72 25 -63 12 4 -7 -3 -9 -17 -7
-15 2 -23 9 -21 18 3 12 1 13 -9 3 -7 -7 -21 -13 -30 -13 -10 0 -20 6 -22 13
-3 7 -6 4 -6 -6 -1 -17 -2 -17 -17 -3 -8 9 -20 14 -25 11 -5 -4 -9 -1 -9 4 0
6 -5 11 -11 11 -5 0 -7 -4 -4 -10 3 -5 -1 -10 -9 -10 -9 0 -16 7 -16 15 0 15
-24 16 -47 2 -7 -5 -13 -4 -13 2 0 7 -8 7 -23 2 -14 -6 -30 -6 -38 0 -12 7
-12 9 1 9 10 0 11 3 3 11 -8 8 -8 23 2 54 24 80 1 115 -83 130 -40 6 -43 5
-59 -26z m80 -10 c33 -9 37 -13 37 -42 0 -18 -5 -48 -10 -67 -17 -56 -181
-698 -200 -783 -16 -67 -16 -79 -4 -84 21 -8 143 3 285 26 129 21 311 48 389
57 31 4 51 1 64 -9 19 -14 19 -16 3 -41 -16 -23 -24 -26 -80 -26 -70 0 -183
-18 -372 -60 -159 -36 -279 -45 -360 -28 -51 11 -61 17 -63 36 -3 22 11 78
113 457 23 88 62 241 85 340 43 185 58 235 69 235 3 0 23 -5 44 -11z m-103
-53 c0 -3 -4 -8 -10 -11 -5 -3 -10 -1 -10 4 0 6 5 11 10 11 6 0 10 -2 10 -4z
m270 -128 c0 -4 -4 -8 -9 -8 -6 0 -12 4 -15 8 -3 5 1 9 9 9 8 0 15 -4 15 -9z
m1169 -242 l22 -24 -82 -108 c-45 -60 -121 -154 -168 -208 -47 -55 -113 -131
-146 -170 -82 -98 -426 -480 -436 -484 -4 -2 -15 8 -24 22 -16 25 -16 26 38
93 30 37 114 136 188 219 283 319 478 550 537 637 18 26 36 47 41 47 4 0 18
-11 30 -24z m-3011 -230 c39 -24 99 -87 261 -269 31 -34 18 -53 -23 -37 -38
14 -335 260 -342 282 -15 48 44 62 104 24z m-393 -66 c3 -5 1 -10 -4 -10 -6 0
-11 5 -11 10 0 6 2 10 4 10 3 0 8 -4 11 -10z m-101 -45 c-10 -8 -25 -15 -31
-15 -7 0 -13 -5 -13 -11 0 -5 -4 -8 -9 -5 -5 4 -12 0 -14 -6 -3 -7 -5 -1 -4
14 1 20 6 25 21 22 10 -2 26 1 35 6 25 15 37 11 15 -5z m3795 -184 c12 -16 21
-31 21 -34 0 -2 -31 -19 -70 -38 -38 -18 -70 -36 -70 -39 0 -13 149 -152 250
-233 104 -83 190 -168 190 -186 0 -15 -39 -24 -53 -13 -7 5 -117 94 -245 196
l-233 186 -92 -49 c-240 -128 -331 -179 -334 -187 -3 -9 29 -32 274 -200 73
-50 148 -103 165 -117 32 -25 33 -26 13 -40 -24 -19 -9 -26 -285 153 -107 70
-209 135 -227 144 -37 18 -35 19 -184 -53 -116 -56 -139 -61 -139 -32 0 27 49
69 171 146 9 5 43 25 75 43 32 18 73 41 89 50 114 69 630 331 652 332 6 0 21
-13 32 -29z m-4045 -4 c4 4 4 0 0 -10 -3 -9 -11 -17 -18 -17 -6 0 -4 -5 4 -10
8 -5 11 -10 5 -10 -5 0 -16 4 -23 9 -11 6 -10 10 3 15 15 5 15 9 4 24 -12 15
-12 16 2 5 9 -7 19 -10 23 -6z m438 -56 c79 -39 154 -110 277 -258 58 -71 102
-115 118 -119 14 -4 79 -1 144 5 93 10 128 10 157 0 43 -13 87 -51 109 -93 34
-66 -9 -229 -71 -269 -70 -47 -169 7 -289 157 -43 53 -84 99 -91 102 -7 3 -53
-9 -102 -27 -145 -51 -263 -44 -357 23 -69 50 -139 178 -157 291 -10 66 -8 88
12 155 24 79 132 94 250 33z m-876 -349 c-3 -2 -1 -13 4 -23 7 -12 6 -20 -2
-25 -7 -4 -10 -4 -6 1 4 4 0 14 -8 22 -8 8 -11 19 -8 25 4 7 2 8 -4 4 -6 -4
-8 -14 -5 -24 5 -13 3 -14 -6 -6 -19 17 7 58 26 42 8 -6 11 -13 9 -16z m2561
-511 c20 -10 21 -14 11 -31 -10 -15 -10 -22 -1 -31 13 -13 -1 -47 -24 -62 -7
-4 -13 -13 -13 -20 0 -7 -9 -18 -20 -25 -27 -16 -27 -68 -1 -75 11 -2 24 0 29
5 7 7 12 2 17 -13 l7 -22 14 24 c7 13 13 20 14 15 0 -5 11 1 25 14 17 16 25
34 25 57 0 18 5 33 10 33 6 0 10 9 10 20 0 18 3 19 22 9 20 -11 20 -13 5 -24
-22 -16 -3 -35 36 -35 24 0 27 -3 18 -13 -6 -8 -8 -17 -4 -20 5 -6 -47 -12
-70 -8 -4 1 -18 -5 -30 -14 -12 -8 -16 -15 -8 -15 16 0 10 -35 -7 -36 -6 -1
-19 -2 -26 -3 -8 0 -27 -12 -41 -25 -15 -14 -32 -23 -39 -20 -7 3 -19 -2 -26
-11 -10 -12 -16 -13 -26 -4 -8 6 -14 8 -14 5 0 -4 -9 -2 -21 5 -18 9 -20 8
-15 -9 4 -11 8 -42 10 -70 2 -38 -2 -56 -17 -74 -13 -16 -17 -18 -13 -5 5 15
2 16 -14 7 -10 -5 -28 -10 -40 -10 -12 0 -33 -9 -47 -20 -20 -15 -29 -17 -39
-9 -10 8 -14 8 -14 0 0 -6 -4 -11 -9 -11 -16 0 0 36 30 69 31 34 38 61 16 61
-8 0 -14 7 -14 15 0 10 6 13 19 9 10 -3 18 0 18 7 0 7 10 10 29 6 25 -5 30 -2
39 21 17 46 15 112 -3 112 -8 0 -15 4 -15 9 0 4 11 6 25 3 14 -2 25 0 25 6 0
13 -29 24 -42 16 -6 -4 -14 0 -19 7 -8 12 -10 12 -18 0 -6 -9 -11 -10 -15 -2
-9 14 18 25 39 17 8 -3 15 -1 15 5 0 6 9 8 20 4 11 -3 20 -2 20 3 0 19 -26 29
-72 26 -43 -4 -47 -2 -45 19 1 26 14 37 45 37 15 0 26 7 29 20 7 28 46 35 84
16 18 -9 34 -16 36 -16 10 0 0 44 -14 58 -15 15 -14 17 8 23 13 3 33 1 44 -6
11 -6 30 -17 42 -24z m-1842 -16 c39 -14 125 -53 193 -85 68 -33 129 -60 137
-60 19 0 62 19 110 49 66 42 78 49 115 66 55 27 105 30 156 10 60 -23 92 -72
106 -163 10 -60 9 -77 -6 -115 -20 -52 -53 -71 -126 -71 -51 0 -70 7 -205 69
-140 65 -124 66 -213 -15 -168 -154 -304 -173 -467 -65 -101 67 -185 193 -185
276 0 77 30 108 125 133 49 12 191 -3 260 -29z m-1046 -66 c-7 -4 -17 -5 -22
-2 -5 3 -3 9 4 14 7 4 17 5 22 2 5 -3 3 -9 -4 -14z m3571 -9 c16 8 20 8 20 -3
0 -8 7 -20 15 -27 9 -7 14 -18 12 -24 -5 -13 47 -62 72 -69 14 -3 26 8 46 39
15 24 32 41 36 38 13 -8 11 -24 -3 -21 -7 1 -15 -11 -19 -28 -4 -16 -7 -25 -8
-20 -1 6 -8 2 -16 -9 -7 -10 -18 -15 -24 -12 -5 4 -12 2 -15 -3 -3 -4 -20 -7
-38 -5 -30 4 -31 3 -12 -11 15 -11 16 -14 4 -15 -9 0 -21 5 -28 12 -9 9 -12 9
-12 -2 0 -7 -3 -11 -6 -7 -3 3 -18 1 -32 -4 -38 -15 -49 3 -23 40 12 16 17 32
12 35 -5 3 -11 0 -14 -8 -4 -9 -14 -12 -26 -9 -12 3 -18 9 -16 14 3 4 13 5 22
2 11 -4 14 -3 9 5 -4 7 -2 12 5 12 7 0 9 3 5 8 -11 10 -56 10 -56 -1 0 -5 -11
-6 -24 -3 -20 5 -25 2 -28 -16 -2 -17 -11 -24 -33 -26 l-30 -4 28 29 c15 16
27 34 27 40 0 6 13 23 30 36 26 22 34 24 65 16 23 -7 41 -6 55 1z m230 -15 c0
-8 -3 -15 -7 -16 -5 0 -16 -2 -25 -4 -21 -4 -22 1 -5 20 16 19 37 19 37 0z
m56 -42 c15 -21 21 -32 11 -24 -9 7 -23 11 -31 8 -10 -4 -13 -1 -9 9 3 8 0 21
-7 29 -7 9 -8 15 -2 15 5 0 22 -17 38 -37z m-799 10 c3 -7 -4 -9 -16 -6 -12 3
-18 9 -15 15 7 11 26 6 31 -9z m2878 -23 c-5 -14 -2 -20 9 -20 9 0 16 -8 15
-17 0 -11 -3 -13 -6 -5 -2 6 -11 12 -19 12 -8 0 -14 7 -14 15 0 8 -6 15 -12
16 -10 0 14 15 30 18 2 1 0 -8 -3 -19z m-3359 -29 c-4 -6 -14 -11 -23 -11 -9
0 -22 -8 -30 -17 -12 -16 -13 -15 -2 7 7 14 19 30 28 37 18 13 37 1 27 -16z
m1701 -11 c162 -27 321 -46 548 -66 39 -3 146 -7 240 -8 l170 -2 9 -27 c15
-41 -10 -60 -84 -65 -39 -3 -60 -9 -60 -17 0 -7 12 -48 26 -91 37 -113 64
-236 71 -331 5 -71 4 -83 -10 -83 -16 0 -27 30 -143 385 -25 77 -49 143 -53
147 -4 4 -63 12 -131 18 -69 5 -155 13 -192 16 -36 3 -68 2 -71 -3 -4 -7 20
-77 53 -158 5 -11 25 -65 46 -120 20 -55 43 -107 51 -116 14 -16 18 -51 7 -62
-26 -26 -87 70 -144 224 -54 146 -74 191 -97 211 -21 19 -212 53 -343 61 -54
4 -32 -75 89 -328 97 -200 104 -219 96 -244 -9 -29 -43 -27 -54 3 -5 13 -46
99 -91 192 -152 314 -194 438 -160 479 16 20 16 20 227 -15z m-897 -20 c23
-14 -17 -41 -50 -33 -35 8 -35 9 -3 26 35 19 35 19 53 7z m-3480 -80 c0 -5 -7
-10 -16 -10 -8 0 -12 5 -9 10 3 6 10 10 16 10 5 0 9 -4 9 -10z m4020 -81 c0
-6 -4 -7 -10 -4 -5 3 -10 11 -10 16 0 6 5 7 10 4 6 -3 10 -11 10 -16z m-1860
-21 c0 -7 -5 -6 -13 1 -8 6 -18 7 -22 3 -5 -4 -5 -2 -1 5 8 14 36 6 36 -9z
m780 17 c0 -2 -10 -10 -22 -16 -21 -11 -22 -11 -9 4 13 16 31 23 31 12z m-603
-42 c26 -17 32 -38 8 -29 -8 3 -15 0 -15 -6 0 -9 -3 -9 -12 0 -16 16 -29 15
-25 0 3 -19 -35 -21 -58 -3 -19 14 -19 16 -2 29 15 12 16 14 2 20 -10 4 -19
-2 -25 -17 -5 -13 -9 -16 -9 -6 -1 8 5 21 12 28 15 15 90 6 124 -16z m-150 -5
c-3 -8 -6 -5 -6 6 -1 11 2 17 5 13 3 -3 4 -12 1 -19z m794 -11 c-13 -12 -20
-15 -16 -7 14 26 28 41 33 35 3 -3 -5 -16 -17 -28z m-57 -36 c15 -28 14 -29
-4 -24 -25 7 -34 19 -26 38 8 21 14 19 30 -14z m-484 14 c0 -10 -41 -25 -52
-19 -8 5 -5 10 8 15 22 9 44 11 44 4z m-225 -25 c-3 -5 -14 -10 -23 -9 -14 0
-13 2 3 9 27 11 27 11 20 0z m335 -10 c0 -5 -7 -10 -15 -10 -8 0 -15 5 -15 10
0 6 7 10 15 10 8 0 15 -4 15 -10z m40 -20 c0 -5 -4 -10 -10 -10 -5 0 -10 5
-10 10 0 6 5 10 10 10 6 0 10 -4 10 -10z m75 -40 c3 -5 -1 -10 -9 -10 -9 0
-16 5 -16 10 0 6 4 10 9 10 6 0 13 -4 16 -10z m-208 -52 c-3 -8 -6 -5 -6 6 -1
11 2 17 5 13 3 -3 4 -12 1 -19z m1744 13 c-11 -7 -12 -15 -5 -32 12 -27 -8
-52 -48 -62 -20 -5 -27 -15 -32 -47 -3 -23 -4 -45 -1 -51 4 -5 -1 -9 -9 -9 -9
0 -16 -4 -16 -9 0 -5 -9 -7 -20 -4 -15 4 -20 0 -20 -15 0 -12 4 -23 9 -26 16
-10 0 -56 -20 -56 -22 0 -24 10 -6 30 6 8 2 6 -10 -4 -21 -17 -23 -17 -23 -3
0 10 -8 17 -17 17 -9 0 -24 7 -32 14 -11 10 -21 12 -31 6 -13 -8 -12 -12 5
-24 17 -13 17 -15 3 -16 -9 0 -19 6 -22 13 -5 10 -7 10 -12 0 -7 -16 -15 -16
-48 -3 -21 8 -24 13 -17 31 4 13 16 23 27 24 10 1 30 5 43 9 17 6 22 5 16 -4
-5 -8 -1 -11 11 -8 11 2 19 11 19 20 0 9 4 20 8 25 5 4 7 2 5 -6 -2 -8 6 -17
17 -19 16 -3 17 -1 8 8 -16 17 -5 40 14 33 10 -4 14 -2 9 5 -3 6 -1 14 5 18 6
4 16 -1 21 -10 5 -9 19 -16 31 -15 22 0 22 0 -1 10 -13 5 -21 13 -18 18 3 5
-1 11 -9 15 -8 3 -15 11 -15 17 0 8 4 9 13 0 11 -8 19 -5 37 14 19 20 21 27
10 40 -10 13 -9 15 9 15 12 0 33 11 47 25 14 14 36 25 52 25 20 0 23 -3 13 -9z
m376 -54 c4 -6 0 -8 -10 -4 -8 3 -18 0 -20 -7 -3 -8 -17 -13 -31 -13 -22 0
-23 1 -10 14 8 8 12 18 10 22 -3 4 8 5 25 3 16 -2 32 -9 36 -15z m-1267 -17
c0 -5 -7 -10 -16 -10 -10 0 -14 -6 -11 -15 4 -8 1 -17 -5 -21 -6 -4 -8 -3 -4
4 3 6 1 14 -5 18 -8 4 -4 11 12 20 29 16 29 16 29 4z m-99 -63 c-14 -14 -15
-60 -1 -52 6 3 10 14 10 24 0 10 7 18 15 18 18 0 20 -13 4 -23 -6 -3 -9 -19
-5 -35 3 -16 1 -29 -4 -29 -15 0 -12 -37 5 -54 19 -19 19 -26 0 -26 -8 0 -17
-11 -21 -24 -3 -13 -15 -27 -27 -30 -17 -5 -19 -8 -9 -15 10 -6 7 -10 -12 -13
-21 -4 -24 -2 -17 11 14 28 3 41 -25 29 -27 -13 -33 -33 -6 -24 14 5 14 3 -3
-9 -13 -10 -32 -14 -58 -11 -49 6 -56 12 -32 30 11 8 14 15 7 20 -6 3 -17 -1
-26 -10 -9 -8 -20 -13 -25 -9 -5 3 -13 0 -17 -6 -4 -8 -3 -9 4 -5 7 4 12 1 12
-8 0 -23 -17 -20 -25 4 -4 14 -15 20 -36 20 -16 0 -29 -4 -29 -8 0 -4 -15 -9
-32 -10 -18 -2 -37 -7 -42 -12 -6 -6 -17 -10 -25 -10 -13 0 -14 2 -2 9 12 8
12 12 -2 26 -21 21 -22 54 -2 61 17 7 20 49 5 59 -15 9 -12 25 5 25 8 0 15 9
15 21 0 16 4 19 20 14 14 -4 20 -2 18 7 -3 15 33 12 43 -4 4 -7 9 -7 13 0 4 6
-4 20 -16 31 -18 18 -19 21 -5 21 9 0 17 -4 17 -10 0 -5 7 -10 15 -10 8 0 15
-5 15 -12 0 -9 3 -9 12 0 9 9 16 8 30 -5 17 -15 18 -15 13 -1 -5 13 2 18 37
22 59 8 128 -6 128 -25 0 -5 6 -9 14 -9 8 0 22 19 31 43 10 23 20 36 22 29 3
-8 0 -19 -6 -25z m1283 2 c-10 -4 -13 -8 -6 -8 13 -1 17 -41 4 -41 -5 0 -14
12 -21 27 -13 29 -1 46 27 35 13 -4 12 -7 -4 -13z m56 -43 c0 -2 -9 -6 -20 -9
-11 -3 -18 -1 -14 4 5 9 34 13 34 5z m-230 -62 c0 -9 6 -14 13 -11 15 6 50
-50 36 -58 -5 -4 -14 5 -21 19 -15 35 -24 33 -33 -6 -4 -18 -9 -27 -12 -20 -2
6 -11 12 -19 12 -8 0 -14 6 -15 13 -1 6 -4 1 -8 -13 -4 -14 -16 -26 -26 -28
-18 -3 -19 -2 -2 8 9 6 17 16 17 23 0 6 12 22 27 34 14 13 23 23 19 23 -4 0
-4 5 -1 10 10 16 25 12 25 -6z m-233 -71 c-4 -3 -2 -12 4 -20 13 -14 2 -17
-25 -7 -15 6 -15 8 1 20 19 14 31 19 20 7z m120 -10 c3 -9 -66 -25 -75 -17 -6
4 52 32 62 30 6 -1 11 -7 13 -13z m-470 -29 c-3 -3 -12 -4 -19 -1 -8 3 -5 6 6
6 11 1 17 -2 13 -5z m2573 -159 c-7 -9 -15 -13 -19 -10 -3 3 1 10 9 15 21 14
24 12 10 -5z m-1868 -145 c8 0 19 5 25 11 8 8 13 6 17 -9 5 -14 13 -18 27 -15
12 3 18 11 15 19 -3 8 -1 14 3 14 5 0 11 -7 15 -15 3 -8 12 -15 21 -15 20 0
65 -44 65 -65 0 -8 6 -15 13 -15 8 0 22 -9 32 -20 15 -16 27 -19 66 -16 33 3
51 0 60 -10 6 -7 15 -12 19 -9 5 3 6 -4 3 -15 -3 -11 -1 -20 4 -20 6 0 8 -11
5 -25 -3 -19 1 -27 21 -34 22 -9 25 -15 21 -46 -4 -30 -1 -37 21 -47 35 -16
35 -60 -1 -77 -18 -8 -24 -17 -20 -28 4 -8 -3 -31 -13 -49 -17 -28 -18 -34 -6
-34 26 0 18 -46 -10 -58 -14 -6 -25 -19 -25 -28 0 -13 -3 -14 -15 -4 -19 16
-40 3 -24 -16 16 -19 -6 -45 -35 -40 -21 3 -57 -27 -69 -57 -10 -26 -124 -89
-149 -82 -19 7 -19 8 -4 17 9 5 25 6 36 3 25 -8 26 7 3 46 -11 18 -26 29 -40
29 -12 0 -24 4 -27 8 -3 5 13 8 35 8 45 -1 59 9 36 27 -8 7 -17 24 -21 40 -5
21 -3 27 10 27 9 0 28 12 41 26 19 20 21 29 12 40 -9 11 -6 14 16 14 33 0 59
29 43 47 -8 10 -6 13 6 13 18 0 20 13 6 41 -8 13 -7 19 0 19 8 0 9 11 5 30 -5
23 -3 30 9 30 9 0 16 5 16 10 0 6 -7 10 -15 10 -8 0 -15 6 -15 14 0 9 -7 12
-19 9 -14 -3 -20 2 -24 24 -6 28 -50 58 -68 47 -5 -3 -9 1 -9 10 0 8 -6 17
-12 19 -8 3 -6 6 5 6 9 1 17 -3 17 -9 0 -15 40 -12 56 5 9 8 24 15 35 15 11 0
18 4 14 10 -10 17 -126 6 -140 -13 -7 -9 -22 -17 -34 -17 -12 0 -21 -6 -21
-15 0 -8 5 -15 12 -15 25 0 -3 -13 -37 -17 -27 -3 -35 0 -35 12 0 9 -7 18 -15
21 -21 8 -19 21 5 29 11 4 18 11 14 16 -3 6 -12 8 -20 5 -8 -3 -14 -2 -14 3 0
5 11 12 25 15 16 4 22 11 19 21 -4 8 -10 12 -15 9 -5 -2 -21 1 -35 9 -16 8
-22 17 -16 21 6 3 13 2 17 -4 3 -5 23 -10 43 -9 l37 1 -37 10 c-23 6 -38 16
-38 25 0 9 -6 13 -14 10 -24 -9 -17 51 8 69 19 13 22 13 32 -1 6 -8 18 -15 26
-15z m-132 -50 c0 -5 -10 -10 -22 -9 -22 0 -22 1 -3 9 11 5 21 9 23 9 1 1 2
-3 2 -9z m68 -138 c2 -7 -2 -10 -12 -6 -9 3 -16 11 -16 16 0 13 23 5 28 -10z
m172 -36 c0 -2 -7 -7 -16 -10 -8 -3 -12 -2 -9 4 6 10 25 14 25 6z m-50 -36 c0
-5 7 -10 15 -10 8 0 15 -3 15 -7 0 -5 -25 -8 -56 -9 l-55 0 33 17 c40 20 48
22 48 9z m90 -7 c0 -14 -19 -38 -25 -32 -8 8 5 39 16 39 5 0 9 -3 9 -7z m-220
-33 c0 -5 -4 -10 -9 -10 -6 0 -13 5 -16 10 -3 6 1 10 9 10 9 0 16 -4 16 -10z
m-179 -51 c5 -10 13 -18 17 -16 4 1 20 -8 36 -21 27 -21 28 -23 12 -40 -21
-24 -22 -66 -1 -58 22 8 19 3 -16 -28 -28 -25 -30 -26 -24 -7 10 33 -5 25 -16
-9 -13 -36 -17 -37 -49 -7 -14 13 -32 22 -40 19 -12 -3 -11 -1 2 13 15 17 18
17 33 1 23 -23 44 -21 38 4 -4 15 -11 19 -24 15 -12 -4 -19 -1 -19 7 0 8 -8
15 -17 16 -43 4 -63 9 -70 17 -5 4 -2 5 5 1 14 -8 17 10 2 19 -5 3 -10 13 -10
21 0 11 6 13 20 9 12 -4 20 -2 20 5 0 7 6 10 13 7 10 -4 13 2 9 19 -4 21 -1
24 19 22 15 -2 23 2 22 9 -4 18 26 4 38 -18z m429 21 c0 -5 -2 -10 -4 -10 -3
0 -8 5 -11 10 -3 6 -1 10 4 10 6 0 11 -4 11 -10z m-285 -23 c-8 -20 -62 -40
-81 -29 -11 6 -13 11 -5 16 6 4 11 2 11 -3 0 -6 7 -11 15 -11 8 0 15 9 15 20
0 15 7 20 25 20 15 0 23 -5 20 -13z m-1450 -39 c4 -15 5 -29 4 -30 -1 -2 3
-13 9 -25 10 -18 8 -28 -9 -57 -12 -20 -16 -36 -10 -36 6 0 11 -11 11 -25 0
-14 6 -34 13 -45 10 -17 9 -22 -3 -30 -13 -9 -7 -14 13 -11 7 1 11 -15 8 -32
-1 -5 3 -24 8 -42 9 -33 8 -34 -32 -54 -37 -17 -45 -18 -64 -5 -27 17 -50 18
-55 3 -2 -6 -27 -14 -56 -17 -49 -4 -52 -3 -52 18 0 12 14 34 30 48 27 24 45
82 20 67 -5 -3 -12 6 -16 20 -3 14 -14 30 -24 35 -26 14 -34 12 -21 -4 10 -12
8 -17 -10 -26 -20 -11 -21 -10 -16 11 4 13 7 30 7 37 0 7 4 11 9 8 5 -4 12 0
14 6 4 10 8 9 16 -2 10 -13 15 -8 12 13 0 4 5 7 12 7 9 0 8 3 -2 9 -16 11 -17
91 -1 122 11 19 13 19 29 5 10 -9 21 -13 24 -9 4 3 7 -2 8 -13 0 -11 3 -14 6
-6 3 7 0 19 -7 27 -9 11 -8 14 9 12 12 -1 21 -8 21 -17 1 -12 3 -11 11 3 8 14
8 22 0 30 -15 15 17 37 51 35 21 -2 29 -9 33 -30z m1465 -2 c0 -2 -7 -6 -15
-10 -8 -3 -15 -1 -15 4 0 6 7 10 15 10 8 0 15 -2 15 -4z m-1115 -84 c6 -4 11
-18 13 -31 1 -13 10 -30 20 -37 14 -11 15 -15 3 -23 -11 -7 -10 -10 8 -13 l21
-3 -26 -38 c-18 -27 -29 -36 -36 -29 -6 6 -17 8 -25 5 -9 -4 -24 5 -38 21 -12
14 -28 26 -34 26 -9 0 -9 5 -1 20 6 11 16 17 25 14 8 -4 18 1 21 10 3 9 10 13
15 10 5 -3 7 -10 4 -15 -4 -5 5 -9 19 -9 18 0 24 4 20 15 -4 8 -9 13 -13 10
-4 -2 -15 11 -24 30 -12 25 -13 35 -4 39 17 7 21 6 32 -2z m980 -99 c-28 -20
-41 -16 -20 7 10 11 22 17 28 13 6 -4 3 -12 -8 -20z m-545 -23 c0 -40 -27
-103 -40 -95 -12 7 -5 77 10 106 16 28 30 23 30 -11z m440 -4 c0 -3 -4 -8 -10
-11 -5 -3 -10 -1 -10 4 0 6 5 11 10 11 6 0 10 -2 10 -4z m82 -28 c-21 -21 -13
-31 18 -24 19 3 29 2 25 -4 -8 -12 -65 -13 -84 -1 -20 13 3 41 32 41 16 0 18
-3 9 -12z m-2872 -183 c0 -8 9 -19 20 -25 15 -8 19 -17 15 -31 -4 -12 -2 -19
6 -19 7 0 9 -3 5 -7 -4 -5 -13 -8 -18 -8 -6 0 -13 -6 -16 -14 -3 -8 0 -11 6
-7 6 3 13 2 17 -4 4 -7 12 -7 25 0 27 15 34 12 19 -6 -11 -14 -10 -19 9 -34
12 -10 22 -23 22 -29 0 -6 5 -11 10 -11 6 0 10 5 10 12 0 9 3 9 13 -1 10 -10
5 -19 -23 -44 -23 -20 -34 -38 -31 -51 2 -16 0 -18 -11 -8 -12 9 -17 7 -28
-13 -7 -13 -17 -22 -22 -19 -4 3 -8 1 -8 -4 0 -19 14 -21 37 -7 20 14 25 14
38 2 12 -13 10 -16 -18 -22 -18 -3 -53 -7 -78 -8 -52 -2 -55 -15 -11 -54 19
-18 28 -20 39 -12 8 7 13 8 13 1 0 -5 -17 -19 -37 -30 -22 -11 -39 -27 -39
-38 -1 -10 -2 -28 -3 -39 -1 -14 -4 -16 -9 -7 -5 7 -16 10 -24 7 -10 -4 -17 1
-21 15 -3 13 0 23 9 27 20 7 18 16 -13 49 -30 31 -93 148 -93 170 0 8 3 14 8
14 8 0 32 48 32 64 0 5 -7 17 -16 27 -13 14 -13 21 -3 37 10 17 10 24 -3 43
-15 23 -14 24 21 36 20 7 46 13 59 13 12 0 22 4 22 9 0 5 9 7 21 4 15 -4 22 0
26 16 6 24 23 29 23 6z m-1569 -59 c8 4 9 3 5 -4 -4 -7 -2 -12 3 -12 6 0 11
-4 11 -9 0 -5 -13 -9 -30 -9 -16 1 -30 5 -30 10 0 5 5 6 10 3 6 -3 10 -1 10 4
0 6 -4 11 -10 11 -5 0 -10 5 -10 11 0 8 4 8 15 -1 8 -6 20 -8 26 -4z m4629 -6
c0 -5 -2 -10 -4 -10 -3 0 -8 5 -11 10 -3 6 -1 10 4 10 6 0 11 -4 11 -10z m66
-32 c-9 -12 -16 -31 -16 -41 0 -17 2 -17 22 -3 31 22 38 20 38 -8 0 -24 -5
-27 -107 -80 -13 -6 -23 -19 -23 -28 0 -12 -8 -18 -23 -18 -28 0 -47 -17 -47
-43 0 -10 -4 -15 -10 -12 -26 16 -28 -9 -5 -50 13 -24 21 -46 17 -48 -15 -8
-87 -1 -88 8 -8 53 -38 77 -60 48 -13 -16 -13 -15 -4 10 6 17 6 27 0 27 -6 0
-10 5 -10 10 0 6 12 10 26 10 17 0 28 6 31 19 6 23 24 32 53 26 13 -2 18 0 14
7 -4 5 0 15 7 20 10 7 8 9 -8 5 -45 -10 -36 37 9 48 30 8 62 49 54 71 -3 8 1
14 8 14 8 0 16 -5 18 -11 6 -18 76 -1 91 21 6 11 15 20 20 20 4 0 1 -10 -7
-22z m-376 -268 c0 -5 -2 -10 -4 -10 -3 0 -8 5 -11 10 -3 6 -1 10 4 10 6 0 11
-4 11 -10z m35 -50 c3 -6 -1 -7 -9 -4 -18 7 -21 14 -7 14 6 0 13 -4 16 -10z
m225 -57 c0 -27 4 -32 30 -38 17 -4 30 -12 30 -20 0 -7 7 -18 15 -25 11 -9 13
-16 5 -24 -16 -16 -12 -26 18 -37 19 -8 23 -13 12 -16 -21 -7 -90 -83 -90 -98
0 -8 -8 -11 -20 -8 -15 4 -20 -1 -25 -23 -4 -16 -8 -35 -11 -42 -5 -17 -46
-31 -64 -22 -8 4 -50 13 -93 20 -75 11 -80 11 -99 -9 -12 -13 -17 -29 -13 -40
3 -11 1 -22 -5 -26 -5 -3 -10 0 -10 8 0 9 -12 14 -34 15 -29 1 -37 -3 -48 -28
-7 -17 -18 -30 -25 -30 -7 0 -17 -9 -23 -20 -6 -11 -15 -20 -20 -20 -13 0 -50
-37 -50 -50 0 -5 -5 -10 -10 -10 -6 0 -15 -11 -20 -24 -5 -15 -20 -27 -40 -31
-36 -8 -87 -32 -95 -46 -4 -5 -15 -9 -26 -9 -10 0 -19 -7 -19 -15 0 -8 -7 -15
-15 -15 -8 0 -15 -7 -15 -15 0 -25 -128 -23 -147 3 -15 19 -17 78 -3 87 18 11
11 39 -16 62 -26 22 -25 43 2 43 8 0 14 8 14 19 0 27 37 34 43 9 8 -27 -2 -48
-22 -49 -11 0 -12 -2 -3 -6 9 -4 10 -9 2 -18 -8 -9 -6 -14 5 -19 8 -3 15 -1
15 4 0 6 9 10 21 10 11 0 18 -4 15 -9 -4 -5 8 -12 25 -16 23 -5 29 -11 25 -23
-3 -10 3 -5 15 11 11 15 25 25 30 22 5 -4 6 1 3 9 -4 11 1 13 28 7 37 -8 71
-4 64 8 -3 4 13 15 34 25 32 14 40 23 40 43 0 18 4 24 15 19 8 -3 15 -1 15 4
0 6 6 10 14 10 7 0 19 7 26 15 11 13 15 13 23 3 7 -10 8 -9 4 3 -3 8 4 26 14
40 10 13 19 35 19 49 0 19 3 21 12 12 7 -7 16 -12 20 -12 13 0 9 68 -4 74 -7
3 0 2 16 -1 22 -4 27 -2 24 8 -3 8 -12 14 -21 14 -8 0 -19 4 -23 8 -4 4 7 7
24 7 19 0 36 -7 45 -20 15 -21 29 -17 20 5 -7 19 66 33 77 15 4 -7 13 -10 19
-6 7 5 6 15 -5 32 -19 29 -7 31 41 8 18 -8 35 -24 38 -34 3 -13 11 -17 26 -13
13 3 21 1 21 -6 0 -7 -4 -9 -10 -6 -5 3 -10 0 -10 -8 0 -10 10 -14 31 -12 25
2 34 9 46 36 7 18 11 39 9 46 -3 7 1 13 10 13 11 0 14 6 8 23 -4 12 -11 25
-17 28 -5 4 -1 9 9 12 13 3 11 5 -8 6 -29 1 -40 21 -12 21 13 0 14 3 5 13 -7
9 -8 24 -2 45 5 17 7 33 3 36 -3 3 0 6 6 6 6 0 14 10 17 21 10 29 25 6 25 -38z
m-770 -7 c0 -17 -27 -29 -35 -16 -4 6 -3 15 0 20 9 15 35 12 35 -4z m-115
-136 c-15 -17 -15 -19 0 -28 16 -8 16 -9 0 -16 -12 -4 -18 0 -22 14 -3 11 -12
20 -19 20 -8 0 -14 5 -14 10 0 6 6 10 13 10 8 0 22 8 33 18 15 15 20 16 22 5
2 -8 -4 -23 -13 -33z m2737 -12 c-9 -9 -15 -9 -24 0 -9 9 -7 12 12 12 19 0 21
-3 12 -12z m-2819 -42 c3 -8 3 -17 0 -20 -9 -9 -34 15 -27 25 8 13 21 11 27
-5z m-849 -32 c20 -19 20 -31 1 -31 -8 0 -15 8 -15 18 0 9 -6 20 -12 22 -9 4
-10 6 -1 6 6 1 19 -6 27 -15z m-989 -4 c-11 -5 -14 -9 -7 -9 20 -1 14 -18 -9
-24 -15 -4 -19 -2 -15 10 3 8 6 19 6 24 0 5 10 9 23 8 21 0 21 -1 2 -9z m1781
-9 c-4 -5 9 -6 29 -1 19 4 35 6 35 5 0 -2 -4 -16 -10 -30 -6 -17 -14 -24 -22
-19 -10 6 -10 4 0 -8 7 -9 9 -19 5 -21 -5 -3 -19 10 -32 29 -15 22 -28 31 -34
25 -15 -15 -3 -46 17 -43 11 2 15 -1 11 -8 -12 -20 15 -40 46 -33 18 3 29 1
29 -5 0 -7 -7 -9 -17 -5 -10 4 -14 2 -10 -4 4 -6 -4 -14 -19 -17 -18 -5 -24
-12 -20 -22 5 -12 -1 -15 -24 -12 -18 2 -34 -3 -39 -11 -5 -7 -14 -10 -20 -6
-7 4 -18 1 -26 -5 -11 -9 -15 -9 -15 -1 0 6 5 11 11 11 5 0 7 5 4 10 -4 6 -16
8 -28 5 -21 -5 -21 -4 -2 4 11 5 29 13 40 17 19 7 19 8 -2 11 -20 4 -25 13
-22 40 0 4 -8 11 -18 15 -16 7 -16 7 2 6 11 -2 26 1 33 5 7 5 14 2 18 -7 9
-23 29 -20 31 4 1 11 -2 20 -6 20 -15 0 1 49 18 53 29 8 42 7 37 -2z m-832
-46 c-4 -8 -11 -12 -16 -9 -6 4 -5 10 3 15 19 12 19 11 13 -6z m-326 -23 c-12
-18 -15 -18 -28 -4 -13 14 -12 15 3 9 11 -4 20 -1 24 9 3 8 8 13 10 10 3 -3
-1 -13 -9 -24z m-663 -13 c4 -11 4 -23 1 -26 -3 -4 -6 0 -6 7 0 7 -8 19 -17
26 -17 12 -17 13 -1 14 9 0 20 -9 23 -21z m636 -46 c-8 -14 -11 -15 -12 -3 -1
8 -1 18 0 23 0 4 -3 7 -9 7 -5 0 -10 -4 -10 -10 0 -5 -6 -7 -14 -4 -10 4 -11
10 -3 28 l10 22 25 -23 c19 -17 22 -26 13 -40z m449 53 c0 -3 -4 -8 -10 -11
-5 -3 -10 -1 -10 4 0 6 5 11 10 11 6 0 10 -2 10 -4z m-129 -25 c18 -14 29 -17
47 -10 17 7 24 5 29 -7 5 -13 7 -13 23 1 16 14 18 14 23 0 4 -10 0 -15 -11
-16 -9 0 -48 -2 -85 -3 -71 -3 -86 5 -73 39 7 20 19 19 47 -4z m730 -21 c4 0
6 -7 2 -16 -5 -13 -7 -13 -14 -2 -7 10 -9 8 -10 -7 l0 -20 -9 20 c-13 30 -12
38 6 31 9 -3 20 -6 25 -6z m-1601 -64 c-28 -13 -28 -38 0 -63 14 -13 19 -23
12 -23 -7 0 -10 -4 -7 -10 3 -5 -3 -10 -14 -10 -11 0 -36 17 -55 38 -37 38
-44 52 -26 52 6 0 10 7 10 15 0 17 16 21 22 5 5 -14 48 0 48 17 0 11 3 11 14
1 12 -11 12 -14 -4 -22z m142 22 c-9 -9 -15 -9 -24 0 -9 9 -7 12 12 12 19 0
21 -3 12 -12z m73 -49 c-6 -18 -3 -19 22 -13 15 4 30 10 33 14 3 4 16 11 29
15 23 7 24 6 17 -25 -6 -35 6 -60 30 -60 8 0 23 -9 34 -20 l21 -21 -21 -26
c-47 -60 -114 -91 -126 -58 -4 9 -19 15 -35 15 -28 0 -29 1 -22 45 4 36 2 46
-11 51 -19 7 -22 40 -3 47 9 3 9 7 -2 20 -12 16 -9 21 12 18 4 0 7 11 7 27 1
23 2 25 11 9 6 -9 7 -26 4 -38z m-25 37 c0 -11 -19 -15 -25 -6 -3 5 1 10 9 10
9 0 16 -2 16 -4z m1395 -16 c3 -5 1 -10 -4 -10 -6 0 -11 5 -11 10 0 6 2 10 4
10 3 0 8 -4 11 -10z m810 -17 c-9 -8 -18 -13 -21 -10 -8 8 19 36 29 30 4 -2 0
-11 -8 -20z m-1359 -10 c-6 -6 -36 9 -36 18 0 5 9 4 20 -3 10 -7 18 -14 16
-15z m540 -33 c8 0 14 7 14 15 0 8 7 15 15 15 22 0 18 -16 -9 -34 -25 -16 -86
-13 -86 5 0 5 7 6 15 2 9 -3 15 -2 14 3 -1 5 0 18 1 29 1 16 3 15 12 -7 5 -16
16 -28 24 -28z m170 34 c22 6 25 4 20 -10 -3 -9 -1 -23 5 -30 9 -11 6 -14 -20
-14 -20 0 -31 5 -31 14 0 9 -12 16 -27 18 -17 2 -29 10 -31 20 -3 15 0 16 27
7 17 -6 43 -8 57 -5z m-1669 -16 c-1 -16 5 -23 30 -30 23 -6 31 -13 26 -23 -3
-9 0 -22 6 -29 18 -21 -3 -28 -33 -12 -22 11 -24 15 -11 20 18 7 14 33 -4 28
-6 -1 -14 5 -17 13 -4 8 -17 15 -30 15 -40 0 -17 32 28 39 4 0 7 -9 5 -21z
m58 12 c3 -5 1 -10 -4 -10 -6 0 -11 5 -11 10 0 6 2 10 4 10 3 0 8 -4 11 -10z
m2383 -22 c16 -16 15 -67 -1 -74 -8 -3 -26 0 -40 5 -43 16 -32 81 13 81 9 0
21 -5 28 -12z m-842 -19 c3 -5 1 -9 -5 -9 -17 0 -41 12 -41 20 0 10 38 1 46
-11z m34 1 c0 -5 -4 -10 -10 -10 -5 0 -10 5 -10 10 0 6 5 10 10 10 6 0 10 -4
10 -10z m-1660 -40 c0 -5 -5 -10 -11 -10 -5 0 -7 5 -4 10 3 6 8 10 11 10 2 0
4 -4 4 -10z m3357 -87 c13 -14 23 -36 23 -47 0 -49 -75 -128 -132 -140 -16 -3
-39 -8 -52 -11 -30 -6 -50 -54 -43 -101 11 -69 47 -82 103 -39 38 29 44 30 44
11 0 -19 -65 -75 -108 -93 -30 -12 -37 -12 -58 2 -61 40 -72 191 -22 290 69
133 188 195 245 128z m-397 -13 c12 -7 12 -22 2 -102 -6 -51 -18 -119 -27
-151 -17 -65 -20 -127 -6 -127 5 0 28 21 50 48 47 54 55 37 13 -29 -44 -68
-92 -110 -122 -107 -24 3 -25 5 -24 78 2 71 13 158 36 263 6 26 7 51 4 55 -19
18 -84 -62 -111 -138 -9 -25 -32 -94 -51 -155 -39 -123 -56 -150 -85 -134 -25
13 -25 24 16 200 39 169 39 196 0 159 -14 -13 -25 -29 -25 -36 0 -6 -7 -17
-15 -24 -12 -10 -15 -9 -15 6 0 74 53 154 102 154 l30 0 -7 -95 c-4 -52 -5
-95 -2 -95 3 0 26 33 52 74 46 75 133 166 157 166 7 0 20 -4 28 -10z m-472
-112 c7 -7 12 -23 12 -38 0 -34 -23 -141 -48 -220 -32 -101 -33 -108 -24 -114
4 -2 29 9 55 26 59 38 82 32 37 -10 -45 -43 -131 -92 -163 -92 -39 0 -42 30
-13 123 14 45 34 111 45 147 10 36 22 73 26 83 11 28 -18 21 -50 -13 -30 -32
-55 -39 -55 -17 0 14 32 46 105 104 44 36 55 39 73 21z m-2038 -13 c0 -9 -17
-19 -46 -26 -53 -14 -56 -20 -74 -139 -7 -47 -16 -107 -20 -135 -4 -27 -13
-88 -19 -135 -6 -47 -20 -125 -30 -175 -10 -49 -17 -93 -14 -97 2 -5 25 -8 49
-8 77 0 47 -24 -47 -37 -46 -6 -104 -16 -129 -22 -99 -23 -140 -1 -48 26 25 7
51 20 58 28 7 8 27 106 46 217 18 112 38 219 44 238 12 42 13 140 1 140 -4 0
-20 -24 -35 -52 -61 -116 -149 -292 -227 -453 -45 -93 -84 -172 -86 -174 -8
-11 -23 18 -28 54 -18 120 -105 491 -121 513 -9 13 -14 2 -27 -59 -33 -163
-70 -404 -71 -469 -1 -43 0 -45 29 -48 91 -9 66 -27 -64 -46 -128 -20 -164
-20 -159 -3 4 10 24 19 76 33 17 5 42 65 58 139 7 33 20 87 28 120 9 33 23 87
30 120 8 33 26 105 41 160 44 160 45 145 -13 145 -49 0 -73 13 -56 30 5 5 49
14 98 20 72 9 92 8 102 -2 14 -15 54 -167 89 -340 14 -68 29 -136 33 -153 l9
-30 13 25 c8 14 33 66 56 115 23 50 84 173 136 275 l94 185 94 17 c122 21 130
21 130 3z m1770 -50 c0 -26 -21 -46 -75 -71 -44 -20 -245 -215 -245 -237 0
-10 20 -16 73 -21 39 -3 90 -9 113 -12 92 -13 151 50 84 89 -49 30 -30 87 25
73 34 -9 48 -40 43 -96 -6 -58 -31 -94 -86 -121 -51 -25 -111 -23 -226 10 -44
12 -85 20 -92 17 -7 -3 -14 -20 -16 -38 -4 -44 -43 -53 -58 -14 -13 36 2 70
38 85 40 17 237 227 237 254 0 31 -102 66 -140 49 -26 -12 -27 -14 -10 -32 36
-40 -4 -86 -49 -57 -21 14 -26 26 -26 56 0 32 6 44 35 70 32 28 43 31 98 31
45 0 77 -7 115 -25 70 -32 88 -32 97 2 3 15 12 31 18 35 16 10 47 -21 47 -47z
m-524 -59 c3 -8 -11 -79 -32 -158 -58 -224 -57 -238 12 -173 36 35 54 43 54
26 0 -10 -102 -111 -125 -124 -9 -4 -28 -7 -43 -5 -29 3 -33 20 -19 86 l7 33
-52 -52 c-64 -64 -126 -109 -149 -109 -23 0 -45 34 -53 81 -9 49 24 151 72
225 43 65 69 91 122 123 36 21 110 29 110 11 0 -20 21 -9 38 20 18 32 49 40
58 16z m-554 -77 c16 -9 35 -8 75 1 47 12 56 11 69 -2 11 -10 14 -23 9 -38 -6
-17 -12 -21 -33 -17 -68 14 -66 15 -74 -38 -4 -27 -10 -65 -13 -83 -8 -43 -60
-101 -112 -124 -24 -10 -43 -25 -43 -32 0 -19 38 -56 58 -56 35 0 159 -68 182
-99 51 -72 31 -155 -47 -198 -52 -28 -106 -34 -188 -19 -125 22 -175 61 -175
136 0 51 76 101 151 99 l24 0 -25 -10 c-43 -17 -60 -40 -60 -79 0 -45 22 -67
92 -92 63 -22 109 -23 148 -3 100 52 36 158 -108 181 -23 3 -40 10 -39 14 1 5
-14 19 -33 32 -40 27 -49 58 -25 94 16 24 15 27 -10 61 -24 30 -27 42 -23 86
12 136 115 231 200 186z m2958 -19 c0 -5 -4 -10 -9 -10 -6 0 -13 5 -16 10 -3
6 1 10 9 10 9 0 16 -4 16 -10z m-25 -37 c3 -15 12 -32 18 -36 9 -6 9 -10 0
-14 -7 -2 -13 -13 -13 -24 0 -20 -24 -26 -35 -8 -4 6 -13 8 -21 5 -7 -3 -16
-1 -19 4 -4 6 3 10 14 10 20 0 25 9 22 38 -1 6 6 12 16 12 13 0 14 3 5 12 -14
14 -16 28 -3 28 5 0 12 -12 16 -27z m-3230 -4 c7 -20 -4 -66 -56 -250 -20 -70
-24 -119 -11 -119 4 0 26 18 47 40 40 41 55 49 55 28 0 -19 -118 -127 -147
-134 -41 -11 -58 15 -45 67 6 24 9 45 7 48 -3 2 -23 -17 -46 -43 -79 -90 -166
-131 -187 -88 -55 105 37 315 177 404 45 28 94 37 106 18 12 -19 35 -10 50 20
18 35 41 39 50 9z m-1985 -180 c0 -11 -4 -18 -10 -14 -5 3 -7 12 -3 20 7 21
13 19 13 -6z m3965 -889 c3 -5 -1 -10 -9 -10 -9 0 -16 5 -16 10 0 6 4 10 9 10
6 0 13 -4 16 -10z m-2565 -40 c0 -5 -5 -10 -11 -10 -5 0 -7 5 -4 10 3 6 8 10
11 10 2 0 4 -4 4 -10z m2420 0 c0 -5 -5 -10 -11 -10 -5 0 -7 5 -4 10 3 6 8 10
11 10 2 0 4 -4 4 -10z m-2070 -160 c13 -8 13 -10 -2 -10 -9 0 -20 5 -23 10 -8
13 5 13 25 0z m30 -25 c0 -15 -6 -25 -14 -25 -11 0 -12 5 -3 25 15 31 17 31
17 0z m1440 -6 c0 -5 -4 -9 -10 -9 -5 0 -10 7 -10 16 0 8 5 12 10 9 6 -3 10
-10 10 -16z m-145 -9 c3 -5 1 -10 -4 -10 -6 0 -11 5 -11 10 0 6 2 10 4 10 3 0
8 -4 11 -10z m-1335 -10 c0 -5 -4 -10 -10 -10 -5 0 -10 5 -10 10 0 6 5 10 10
10 6 0 10 -4 10 -10z m1010 -23 c-14 -8 -27 -12 -30 -10 -7 6 23 23 40 23 8 0
4 -6 -10 -13z"/>
<path d="M4227 8423 c-3 -5 -8 -26 -11 -49 -9 -55 -41 -104 -66 -104 -15 0
-23 11 -32 45 -7 25 -15 45 -18 45 -11 0 -40 -70 -40 -95 0 -47 43 -120 111
-186 105 -103 198 -122 327 -68 29 12 52 28 52 36 0 21 -42 101 -79 154 -68
94 -232 243 -244 222z"/>
<path d="M4790 8037 c-83 -18 -92 -25 -80 -69 20 -70 158 -198 215 -198 75 0
136 163 85 225 -33 40 -135 59 -220 42z"/>
<path d="M5770 7500 c6 -11 15 -20 20 -20 6 0 5 9 -2 20 -7 11 -16 20 -21 20
-4 0 -3 -9 3 -20z"/>
<path d="M5730 7494 c0 -8 5 -12 10 -9 6 3 10 10 10 16 0 5 -4 9 -10 9 -5 0
-10 -7 -10 -16z"/>
<path d="M5760 7162 c0 -4 9 -8 19 -8 11 0 17 4 15 8 -3 4 -12 8 -20 8 -8 0
-14 -4 -14 -8z"/>
<path d="M3915 7549 c12 -38 18 -107 11 -134 -9 -37 -41 -32 -68 10 -13 19
-26 35 -30 35 -5 0 -8 -22 -8 -50 0 -43 5 -55 36 -90 39 -43 128 -90 210 -110
65 -17 146 -2 202 35 51 34 104 99 96 119 -7 18 -75 69 -144 109 -53 30 -212
85 -272 94 -39 5 -41 4 -33 -18z"/>
<path d="M4673 7501 c-61 -21 -143 -85 -143 -111 0 -43 127 -112 234 -126 40
-6 50 -4 71 16 50 47 45 152 -10 207 -39 39 -72 42 -152 14z"/>
<path d="M6603 7473 c-7 -2 -13 -9 -13 -15 0 -7 5 -7 13 1 8 6 18 7 22 3 5 -4
5 -1 1 6 -4 6 -8 12 -9 11 -1 0 -8 -3 -14 -6z"/>
<path d="M6645 7400 c3 -5 10 -10 16 -10 5 0 9 5 9 10 0 6 -7 10 -16 10 -8 0
-12 -4 -9 -10z"/>
<path d="M6986 6771 c-4 -7 -5 -15 -2 -18 9 -9 19 4 14 18 -4 11 -6 11 -12 0z"/>
<path d="M6830 6730 c-13 -8 -12 -10 3 -10 9 0 17 5 17 10 0 12 -1 12 -20 0z"/>
<path d="M5960 6770 c0 -5 5 -10 11 -10 5 0 7 5 4 10 -3 6 -8 10 -11 10 -2 0
-4 -4 -4 -10z"/>
<path d="M6160 6739 c0 -5 5 -7 10 -4 6 3 10 8 10 11 0 2 -4 4 -10 4 -5 0 -10
-5 -10 -11z"/>
<path d="M7395 6130 c3 -5 11 -10 16 -10 6 0 7 5 4 10 -3 6 -11 10 -16 10 -6
0 -7 -4 -4 -10z"/>
<path d="M7660 6101 c0 -12 28 -22 35 -12 3 5 -2 12 -11 15 -21 8 -24 8 -24
-3z"/>
<path d="M7542 5706 c1 -10 8 -17 13 -17 15 1 12 24 -3 29 -9 3 -13 -2 -10
-12z"/>
<path d="M4345 5326 c-18 -13 -18 -14 2 -24 23 -13 33 -7 33 20 0 22 -10 23
-35 4z"/>
<path d="M6425 4463 c-19 -14 -16 -51 3 -48 9 2 20 4 25 4 4 1 7 8 7 17 0 11
5 14 16 10 10 -4 14 -1 12 6 -5 15 -48 22 -63 11z"/>
<path d="M6170 4700 c0 -5 5 -10 11 -10 5 0 7 5 4 10 -3 6 -8 10 -11 10 -2 0
-4 -4 -4 -10z"/>
<path d="M7842 4390 c-23 -19 -72 -102 -72 -121 0 -16 36 -10 64 12 32 25 56
69 56 104 0 30 -16 32 -48 5z"/>
<path d="M6088 4068 c-73 -88 -99 -141 -114 -235 -5 -36 -3 -43 16 -53 19 -10
26 -7 61 30 60 63 88 114 109 197 14 54 17 80 9 94 -16 30 -34 23 -81 -33z"/>
<path d="M5684 4080 c-11 -4 -35 -36 -53 -69 -25 -48 -33 -75 -34 -123 -1 -40
2 -62 10 -65 30 -11 104 112 116 193 8 50 -8 76 -39 64z"/>
<path d="M5257 3957 c-52 -53 -96 -126 -118 -199 -23 -74 -22 -96 3 -112 22
-13 65 25 115 102 62 96 88 242 43 242 -5 0 -24 -15 -43 -33z"/>
<path d="M5981 9427 c2 -1 12 -9 22 -16 15 -12 17 -12 11 3 -3 9 -13 16 -22
16 -8 0 -13 -1 -11 -3z"/>
<path d="M5715 9410 c3 -5 8 -10 11 -10 2 0 4 5 4 10 0 6 -5 10 -11 10 -5 0
-7 -4 -4 -10z"/>
<path d="M5835 9410 c3 -5 8 -10 11 -10 2 0 4 5 4 10 0 6 -5 10 -11 10 -5 0
-7 -4 -4 -10z"/>
<path d="M6072 9406 c7 -8 15 -10 16 -5 2 5 9 6 14 3 7 -4 8 -2 4 4 -4 7 -16
12 -27 12 -16 0 -18 -2 -7 -14z"/>
<path d="M5910 9400 c0 -5 7 -7 15 -4 8 4 15 8 15 10 0 2 -7 4 -15 4 -8 0 -15
-4 -15 -10z"/>
<path d="M5947 9396 c-12 -9 -14 -16 -8 -21 6 -3 11 -1 11 4 0 6 7 11 15 11 8
0 15 5 15 10 0 14 -11 12 -33 -4z"/>
<path d="M5677 9383 c3 -7 6 -13 8 -13 2 0 5 6 8 13 3 8 -1 14 -8 14 -7 0 -11
-6 -8 -14z"/>
<path d="M5782 9391 c-11 -6 -10 -10 4 -15 9 -3 19 -4 22 -1 3 3 0 5 -7 5 -7
0 -9 5 -6 10 7 12 4 12 -13 1z"/>
<path d="M5889 9399 c-6 -32 -5 -39 4 -40 7 -1 15 -1 20 0 4 0 7 -7 8 -16 0
-11 3 -13 6 -6 2 7 -5 25 -16 39 -12 15 -21 25 -22 23z"/>
<path d="M5843 9370 c-1 -11 2 -22 8 -25 5 -4 9 3 9 14 0 26 -15 35 -17 11z"/>
<path d="M5996 9383 c5 -5 12 -12 15 -16 3 -5 9 -2 12 7 5 12 0 16 -15 16 -12
0 -17 -3 -12 -7z"/>
<path d="M6417 9377 c-3 -8 -2 -19 3 -26 5 -9 9 -7 13 8 6 23 -8 39 -16 18z"/>
<path d="M6490 9380 c-8 -5 -12 -12 -9 -15 4 -3 12 1 19 10 14 17 11 19 -10 5z"/>
<path d="M5963 9358 c-2 -16 1 -18 10 -9 7 7 8 14 1 21 -6 6 -10 2 -11 -12z"/>
<path d="M5378 9349 c9 -10 17 -19 17 -19 0 0 1 8 1 18 0 10 -8 19 -17 19 -16
2 -17 0 -1 -18z"/>
<path d="M6075 9360 c3 -5 8 -10 11 -10 2 0 4 5 4 10 0 6 -5 10 -11 10 -5 0
-7 -4 -4 -10z"/>
<path d="M5701 9343 c-18 -19 -10 -25 12 -8 10 7 15 15 10 18 -4 3 -14 -2 -22
-10z"/>
<path d="M6380 9349 c0 -5 -4 -7 -10 -4 -5 3 -10 1 -10 -5 0 -6 -4 -9 -9 -6
-5 4 -7 -3 -4 -13 3 -11 12 -18 21 -16 10 2 19 4 22 4 3 1 -2 5 -10 11 -12 8
-12 10 3 16 18 7 23 24 7 24 -5 0 -10 -5 -10 -11z"/>
<path d="M6630 9350 c0 -5 5 -10 11 -10 5 0 7 5 4 10 -3 6 -8 10 -11 10 -2 0
-4 -4 -4 -10z"/>
<path d="M5465 9333 c-15 -12 -16 -14 -3 -10 9 3 18 1 21 -6 2 -6 6 -4 10 6 9
23 -5 28 -28 10z"/>
<path d="M6731 9334 c0 -11 3 -14 6 -6 3 7 2 16 -1 19 -3 4 -6 -2 -5 -13z"/>
<path d="M5645 9330 c3 -5 8 -10 11 -10 2 0 4 5 4 10 0 6 -5 10 -11 10 -5 0
-7 -4 -4 -10z"/>
<path d="M5740 9331 c0 -7 -4 -9 -10 -6 -5 3 -10 -1 -10 -9 0 -8 6 -18 13 -22
6 -4 9 -4 5 1 -4 4 -3 14 4 22 6 7 8 16 4 20 -3 3 -6 1 -6 -6z"/>
<path d="M6755 9331 c-3 -5 -1 -12 5 -16 5 -3 10 1 10 9 0 18 -6 21 -15 7z"/>
<path d="M6794 9328 c13 -10 15 -17 8 -22 -7 -4 -12 -11 -12 -17 0 -5 9 0 21
12 23 23 23 24 -11 34 -24 7 -24 6 -6 -7z"/>
<path d="M6610 9316 c0 -8 4 -17 9 -20 5 -4 7 3 4 14 -6 23 -13 26 -13 6z"/>
<path d="M6862 9296 c1 -13 6 -22 10 -20 11 7 10 32 -2 39 -6 3 -9 -4 -8 -19z"/>
<path d="M5116 9297 c3 -10 9 -15 12 -12 3 3 0 11 -7 18 -10 9 -11 8 -5 -6z"/>
<path d="M6840 9291 c0 -7 -5 -9 -12 -5 -7 4 -8 3 -4 -4 4 -7 2 -12 -4 -12 -6
0 -8 -4 -5 -10 3 -5 10 -10 14 -10 10 0 23 42 16 49 -3 2 -5 -1 -5 -8z"/>
<path d="M6923 9288 c-6 -7 -14 -24 -18 -37 -5 -18 -4 -22 6 -17 8 4 5 0 -5
-8 -18 -15 -18 -16 -2 -16 10 0 14 -5 10 -11 -4 -8 0 -8 15 0 25 14 28 26 4
16 -14 -5 -15 -3 -6 6 6 6 9 18 6 27 -4 10 -2 13 5 8 8 -5 11 0 9 13 -4 28
-12 34 -24 19z"/>
<path d="M5240 9280 c0 -5 5 -10 10 -10 6 0 10 5 10 10 0 6 -4 10 -10 10 -5 0
-10 -4 -10 -10z"/>
<path d="M5017 9261 c-4 -17 -3 -21 5 -13 5 5 8 16 6 23 -3 8 -7 3 -11 -10z"/>
<path d="M6715 9271 c-3 -5 -2 -12 3 -15 5 -3 9 1 9 9 0 17 -3 19 -12 6z"/>
<path d="M6876 9248 l-19 -33 23 21 c12 12 21 27 19 33 -3 7 -13 -3 -23 -21z"/>
<path d="M5114 9259 c-7 -12 17 -32 26 -22 3 3 -1 8 -8 10 -6 3 -10 9 -6 14 3
5 3 9 0 9 -3 0 -8 -5 -12 -11z"/>
<path d="M5325 9260 c3 -5 8 -10 11 -10 2 0 4 5 4 10 0 6 -5 10 -11 10 -5 0
-7 -4 -4 -10z"/>
<path d="M4920 9233 c0 -11 -5 -24 -12 -31 -9 -9 -8 -12 6 -12 9 0 14 5 11 10
-3 6 -1 10 4 10 14 0 14 27 1 35 -5 3 -10 -2 -10 -12z"/>
<path d="M5035 9237 c-23 -14 -35 -28 -35 -42 0 -5 4 -4 9 4 5 8 14 10 22 6 8
-5 11 -4 6 0 -4 5 0 17 10 27 18 21 16 22 -12 5z"/>
<path d="M4860 9220 c-9 -16 -8 -18 5 -14 8 4 15 12 15 20 0 20 -7 17 -20 -6z"/>
<path d="M5066 9223 c-6 -14 -5 -15 5 -6 7 7 10 15 7 18 -3 3 -9 -2 -12 -12z"/>
<path d="M6963 9218 c-1 -10 0 -18 2 -18 2 0 9 8 14 18 7 14 6 19 -3 19 -6 0
-13 -9 -13 -19z"/>
<path d="M7102 9220 c-7 -11 -9 -20 -4 -20 4 0 13 9 20 20 7 11 9 20 4 20 -4
0 -13 -9 -20 -20z"/>
<path d="M7145 9210 c3 -5 8 -10 11 -10 2 0 4 5 4 10 0 6 -5 10 -11 10 -5 0
-7 -4 -4 -10z"/>
<path d="M4947 9186 c-29 -13 -28 -29 1 -19 13 4 14 3 3 -5 -10 -7 -11 -14 -2
-28 12 -21 12 -20 15 16 0 14 5 31 9 38 9 14 10 14 -26 -2z"/>
<path d="M4816 9175 c4 -8 8 -15 10 -15 2 0 4 7 4 15 0 8 -4 15 -10 15 -5 0
-7 -7 -4 -15z"/>
<path d="M4846 9173 c-4 -10 -4 -14 0 -10 4 4 16 -1 27 -10 20 -18 20 -18 2
10 -20 32 -21 32 -29 10z"/>
<path d="M4980 9175 c0 -2 9 -9 19 -15 14 -7 22 -7 27 2 4 6 3 8 -4 4 -6 -3
-13 -2 -17 4 -6 10 -25 14 -25 5z"/>
<path d="M4674 9159 c-3 -5 -2 -9 3 -10 4 0 16 -2 26 -4 9 -2 17 0 17 5 0 12
-39 20 -46 9z"/>
<path d="M7130 9145 c5 -7 8 -14 5 -16 -2 -3 5 -5 16 -6 14 -1 19 3 17 14 -2
9 -13 17 -25 18 -16 1 -20 -2 -13 -10z"/>
<path d="M4627 9143 c-14 -14 -6 -23 12 -14 10 6 22 7 26 3 5 -4 5 -1 1 6 -8
13 -29 16 -39 5z"/>
<path d="M7180 9128 c0 -12 3 -17 8 -12 4 5 11 12 15 15 5 3 2 9 -7 12 -12 5
-16 0 -16 -15z"/>
<path d="M4671 9089 c-15 -17 -18 -26 -10 -40 5 -11 12 -19 15 -19 3 0 3 4 0
9 -9 15 5 43 19 37 8 -3 11 2 8 15 -7 24 -8 24 -32 -2z"/>
<path d="M4606 9091 c-12 -5 -15 -10 -9 -14 6 -4 16 0 23 8 14 17 13 17 -14 6z"/>
<path d="M7460 9082 c0 -4 9 -8 20 -9 11 -1 20 2 20 5 0 4 -9 8 -20 9 -11 1
-20 -2 -20 -5z"/>
<path d="M4556 9035 c-11 -8 -15 -15 -9 -15 6 0 16 7 23 15 16 19 11 19 -14 0z"/>
<path d="M4411 9017 c-6 -15 -16 -27 -23 -27 -7 0 -4 -6 7 -12 11 -6 23 -15
26 -20 3 -5 13 2 23 17 12 17 13 24 4 23 -7 -2 -16 -7 -20 -13 -5 -6 -8 -3 -8
7 0 9 4 18 10 20 6 2 6 9 0 18 -7 11 -11 9 -19 -13z"/>
<path d="M4461 9024 c0 -11 3 -14 6 -6 3 7 2 16 -1 19 -3 4 -6 -2 -5 -13z"/>
<path d="M4346 8995 c-9 -26 -7 -32 5 -12 6 10 9 21 6 23 -2 3 -7 -2 -11 -11z"/>
<path d="M4376 8961 c-4 -6 0 -11 8 -11 10 0 13 -6 9 -17 -5 -15 -3 -16 8 -5
11 10 11 15 -3 28 -11 11 -18 12 -22 5z"/>
<path d="M7705 8949 c-4 -6 -4 -13 -1 -16 3 -4 6 -1 6 6 0 7 5 9 12 5 7 -4 8
-3 4 4 -9 15 -13 15 -21 1z"/>
<path d="M4239 8938 c-10 -35 7 -46 33 -20 8 8 5 9 -12 5 -16 -4 -21 -3 -16 5
4 7 5 12 2 12 -3 0 -6 -1 -7 -2z"/>
<path d="M7748 8913 c7 -3 16 -2 19 1 4 3 -2 6 -13 5 -11 0 -14 -3 -6 -6z"/>
<path d="M7710 8891 c0 -21 12 -39 24 -35 6 2 12 -5 13 -16 1 -13 -2 -18 -10
-14 -7 4 -8 3 -4 -1 4 -5 14 -10 23 -11 11 -2 13 3 8 19 -4 12 -8 30 -8 39 0
12 -4 14 -10 8 -13 -13 -29 -13 -21 -1 3 5 1 12 -5 16 -5 3 -10 2 -10 -4z"/>
<path d="M4190 8879 c0 -5 5 -7 10 -4 6 3 10 8 10 11 0 2 -4 4 -10 4 -5 0 -10
-5 -10 -11z"/>
<path d="M4261 8859 c-13 -11 -18 -19 -11 -19 7 0 18 7 25 16 9 13 16 14 32 6
15 -8 20 -8 20 2 0 20 -39 16 -66 -5z"/>
<path d="M4130 8840 c0 -5 5 -10 11 -10 6 0 9 -6 6 -13 -3 -7 3 -13 13 -14 17
-2 17 0 -2 23 -24 27 -28 29 -28 14z"/>
<path d="M4215 8820 c-3 -5 1 -10 10 -10 9 0 13 5 10 10 -3 6 -8 10 -10 10 -2
0 -7 -4 -10 -10z"/>
<path d="M7940 8800 c-9 -6 -10 -10 -3 -10 6 0 15 5 18 10 8 12 4 12 -15 0z"/>
<path d="M3953 8753 c-27 -19 -30 -33 -5 -32 11 0 13 2 4 6 -10 4 -5 11 15 24
15 10 24 19 18 18 -5 0 -20 -7 -32 -16z"/>
<path d="M4116 8744 c-9 -23 -2 -28 13 -10 7 8 8 17 3 20 -6 3 -13 -1 -16 -10z"/>
<path d="M7877 8753 c-4 -3 -7 -11 -7 -17 0 -6 5 -5 12 2 6 6 9 14 7 17 -3 3
-9 2 -12 -2z"/>
<path d="M7960 8756 c0 -2 7 -7 16 -10 8 -3 12 -2 9 4 -6 10 -25 14 -25 6z"/>
<path d="M3957 8715 c-11 -8 -25 -11 -32 -9 -9 4 -13 -1 -11 -12 3 -22 26 -31
26 -10 0 10 6 13 15 10 9 -4 18 1 21 10 9 23 2 27 -19 11z"/>
<path d="M8050 8720 c-9 -6 -10 -10 -3 -10 6 0 15 5 18 10 8 12 4 12 -15 0z"/>
<path d="M3967 8684 c-3 -3 -3 -13 0 -21 5 -12 7 -12 14 -1 15 23 4 40 -14 22z"/>
<path d="M8133 8633 c0 -11 6 -20 12 -21 5 0 21 -3 35 -6 14 -4 18 -3 10 0 -8
4 -25 16 -37 27 -22 19 -22 19 -20 0z"/>
<path d="M8050 8630 c-13 -8 -12 -10 3 -10 9 0 17 5 17 10 0 12 -1 12 -20 0z"/>
<path d="M3852 8616 c7 -8 15 -12 17 -11 5 6 -10 25 -20 25 -5 0 -4 -6 3 -14z"/>
<path d="M8097 8610 c-3 -11 -1 -23 4 -26 5 -3 9 6 9 20 0 31 -6 34 -13 6z"/>
<path d="M3766 8585 c-4 -14 -11 -23 -16 -20 -6 3 -7 -1 -4 -10 8 -19 7 -19
28 23 9 17 12 32 7 32 -5 0 -12 -11 -15 -25z"/>
<path d="M3831 8594 c0 -11 3 -14 6 -6 3 7 2 16 -1 19 -3 4 -6 -2 -5 -13z"/>
<path d="M8240 8572 c0 -5 7 -9 15 -9 8 0 12 4 9 9 -3 4 -9 8 -15 8 -5 0 -9
-4 -9 -8z"/>
<path d="M8197 8533 c-4 -3 -7 -13 -7 -21 0 -11 3 -12 13 -3 8 6 18 7 23 3 4
-4 2 1 -5 11 -15 19 -15 19 -24 10z"/>
<path d="M8292 8519 c2 -6 8 -10 13 -10 5 0 11 4 13 10 2 6 -4 11 -13 11 -9 0
-15 -5 -13 -11z"/>
<path d="M8331 8487 c-9 -12 -9 -18 3 -30 11 -11 12 -17 3 -28 -10 -11 -9 -11
5 0 10 7 16 17 13 21 -3 5 1 10 7 13 10 3 9 9 -3 21 -14 15 -17 15 -28 3z"/>
<path d="M3691 8475 c0 -5 3 -16 8 -23 7 -11 9 -10 14 3 4 9 3 14 -2 10 -5 -3
-12 1 -14 7 -3 7 -6 9 -6 3z"/>
<path d="M8375 8450 c-3 -6 0 -13 9 -16 8 -3 13 -14 11 -26 -4 -16 -2 -18 10
-8 11 9 12 17 5 30 -13 25 -27 33 -35 20z"/>
<path d="M3665 8431 c-3 -5 -2 -12 3 -15 5 -3 9 1 9 9 0 17 -3 19 -12 6z"/>
<path d="M3600 8421 c0 -6 9 -11 20 -11 11 0 18 -6 16 -12 -1 -7 -1 -10 1 -5
3 4 9 5 14 2 5 -4 6 1 3 9 -3 9 -10 16 -14 16 -5 0 -15 3 -24 6 -9 3 -16 1
-16 -5z"/>
<path d="M8440 8390 c0 -5 5 -10 11 -10 5 0 7 5 4 10 -3 6 -8 10 -11 10 -2 0
-4 -4 -4 -10z"/>
<path d="M8328 8383 c7 -3 16 -2 19 1 4 3 -2 6 -13 5 -11 0 -14 -3 -6 -6z"/>
<path d="M3582 8341 c4 -13 18 -16 19 -4 0 4 -5 9 -11 12 -7 2 -11 -2 -8 -8z"/>
<path d="M3530 8321 c0 -10 30 -24 37 -17 3 2 -5 9 -16 16 -12 6 -21 7 -21 1z"/>
<path d="M8510 8316 c0 -2 7 -9 15 -16 13 -11 14 -10 9 4 -5 14 -24 23 -24 12z"/>
<path d="M3591 8282 c-1 -8 -6 -10 -13 -6 -10 5 -10 4 -1 -6 15 -16 28 -8 20
12 -4 11 -6 11 -6 0z"/>
<path d="M8533 8165 c0 -8 4 -12 9 -9 5 3 6 10 3 15 -9 13 -12 11 -12 -6z"/>
<path d="M3350 8159 c0 -5 5 -7 10 -4 6 3 10 8 10 11 0 2 -4 4 -10 4 -5 0 -10
-5 -10 -11z"/>
<path d="M3270 8055 c0 -8 -7 -15 -16 -15 -8 0 -12 -4 -9 -10 9 -15 18 -12 38
15 15 22 16 25 2 25 -8 0 -15 -7 -15 -15z"/>
<path d="M8642 8036 c1 -13 6 -22 10 -20 11 7 10 32 -2 39 -6 3 -9 -4 -8 -19z"/>
<path d="M8685 8050 c-19 -8 -19 -9 3 -9 12 -1 22 4 22 9 0 6 -1 10 -2 9 -2 0
-12 -4 -23 -9z"/>
<path d="M3295 8040 c-3 -5 1 -10 9 -10 9 0 16 5 16 10 0 6 -4 10 -9 10 -6 0
-13 -4 -16 -10z"/>
<path d="M3330 8020 c-8 -5 -10 -10 -5 -10 6 0 17 5 25 10 8 5 11 10 5 10 -5
0 -17 -5 -25 -10z"/>
<path d="M8726 7998 c5 -22 3 -28 -10 -28 -9 0 -16 -5 -16 -10 0 -7 6 -7 20 0
22 12 25 27 10 50 -8 11 -9 8 -4 -12z"/>
<path d="M3240 8001 c0 -17 18 -21 24 -6 3 9 0 15 -9 15 -8 0 -15 -4 -15 -9z"/>
<path d="M8685 7990 c3 -5 8 -10 11 -10 2 0 4 5 4 10 0 6 -5 10 -11 10 -5 0
-7 -4 -4 -10z"/>
<path d="M8751 7988 c0 -9 4 -20 10 -24 8 -4 7 -9 -2 -16 -9 -5 -3 -6 16 -2
37 8 39 10 30 24 -4 6 -15 8 -25 5 -12 -4 -20 0 -23 12 -4 16 -5 16 -6 1z"/>
<path d="M3204 7973 c4 -8 2 -13 -6 -13 -7 0 -2 -7 10 -16 13 -9 26 -13 29
-10 4 3 1 6 -6 6 -7 0 -10 4 -7 9 3 5 -2 15 -11 22 -12 10 -14 10 -9 2z"/>
<path d="M8847 7865 c-4 -8 -2 -17 3 -20 6 -4 10 3 10 14 0 25 -6 27 -13 6z"/>
<path d="M3093 7817 c-9 -19 -9 -28 -1 -33 6 -4 8 -3 4 4 -3 5 -1 12 5 14 6 2
10 12 8 23 -4 16 -6 15 -16 -8z"/>
<path d="M8887 7824 c-4 -4 -7 -14 -7 -23 0 -11 3 -12 11 -4 6 6 10 16 7 23
-2 6 -7 8 -11 4z"/>
<path d="M8807 7813 c-10 -9 -9 -23 1 -23 5 0 9 7 9 15 0 17 -1 18 -10 8z"/>
<path d="M8830 7784 c0 -11 29 -34 34 -26 2 4 -4 13 -15 20 -10 7 -19 10 -19
6z"/>
<path d="M3065 7770 c-3 -5 -1 -10 4 -10 6 0 11 5 11 10 0 6 -2 10 -4 10 -3 0
-8 -4 -11 -10z"/>
<path d="M3146 7772 c-2 -4 -1 -14 3 -21 6 -10 10 -9 14 3 6 16 -8 32 -17 18z"/>
<path d="M3110 7750 c6 -11 15 -20 20 -20 6 0 5 9 -2 20 -7 11 -16 20 -21 20
-4 0 -3 -9 3 -20z"/>
<path d="M8920 7741 c0 -5 7 -12 16 -15 14 -5 15 -4 4 9 -14 17 -20 19 -20 6z"/>
<path d="M8882 7708 c5 -15 35 -19 35 -4 0 7 -9 13 -19 13 -11 1 -18 -3 -16
-9z"/>
<path d="M3030 7665 c-9 -10 -9 -15 -1 -15 6 0 11 -10 11 -22 1 -21 2 -21 11
-5 8 13 7 22 -1 32 -8 10 -8 14 2 18 8 3 8 6 2 6 -6 1 -17 -6 -24 -14z"/>
<path d="M3082 7638 c5 -15 28 -23 28 -10 0 5 -7 13 -16 16 -10 4 -14 1 -12
-6z"/>
<path d="M9000 7620 c0 -5 5 -10 10 -10 6 0 10 5 10 10 0 6 -4 10 -10 10 -5 0
-10 -4 -10 -10z"/>
<path d="M2977 7584 c6 -16 19 -18 27 -5 3 5 -3 11 -13 14 -14 3 -18 1 -14 -9z"/>
<path d="M3040 7585 c0 -8 2 -15 4 -15 2 0 6 7 10 15 3 8 1 15 -4 15 -6 0 -10
-7 -10 -15z"/>
<path d="M2996 7541 c-4 -7 -5 -15 -2 -18 9 -9 19 4 14 18 -4 11 -6 11 -12 0z"/>
<path d="M2906 7483 c-6 -14 -5 -15 5 -6 7 7 10 15 7 18 -3 3 -9 -2 -12 -12z"/>
<path d="M2927 7480 c-3 -13 0 -20 10 -20 8 0 12 -4 9 -8 -6 -11 50 -10 60 1
5 5 -3 6 -18 3 -24 -4 -60 18 -50 31 2 3 2 7 -1 9 -2 3 -7 -4 -10 -16z"/>
<path d="M9070 7464 c0 -2 9 -8 20 -14 15 -8 18 -8 14 3 -4 11 -34 21 -34 11z"/>
<path d="M9060 7432 c0 -5 7 -9 15 -9 8 0 15 4 15 9 0 4 -7 8 -15 8 -8 0 -15
-4 -15 -8z"/>
<path d="M9092 7391 c-11 -7 -11 -9 2 -14 10 -4 16 -1 16 8 0 17 -1 17 -18 6z"/>
<path d="M2910 7380 c0 -5 -7 -7 -15 -4 -8 4 -15 2 -15 -3 0 -15 38 -13 44 3
3 8 1 14 -4 14 -6 0 -10 -4 -10 -10z"/>
<path d="M9045 7350 c3 -5 8 -10 11 -10 2 0 4 5 4 10 0 6 -5 10 -11 10 -5 0
-7 -4 -4 -10z"/>
<path d="M9076 7348 c3 -5 10 -6 15 -3 5 4 9 2 9 -4 0 -5 -6 -12 -12 -14 -10
-4 -10 -6 -1 -6 7 -1 17 7 22 17 8 15 6 18 -14 18 -13 0 -21 -4 -19 -8z"/>
<path d="M9114 7288 c-5 -7 -2 -9 9 -5 8 3 21 -1 28 -9 10 -12 14 -12 20 -2 5
7 3 16 -4 20 -18 11 -45 10 -53 -4z"/>
<path d="M2817 7254 c7 -3 10 -11 8 -17 -3 -7 -1 -19 5 -27 7 -12 12 -12 22
-2 9 9 9 12 -5 12 -9 0 -17 5 -17 10 0 6 5 10 11 10 5 0 7 5 4 10 -3 6 -14 10
-23 9 -10 0 -12 -3 -5 -5z"/>
<path d="M2868 7253 c7 -3 16 -2 19 1 4 3 -2 6 -13 5 -11 0 -14 -3 -6 -6z"/>
<path d="M9130 7230 c0 -4 7 -7 15 -6 23 3 26 12 5 13 -11 1 -20 -2 -20 -7z"/>
<path d="M9186 7213 c-6 -14 -5 -15 5 -6 7 7 10 15 7 18 -3 3 -9 -2 -12 -12z"/>
<path d="M9131 7201 c-8 -5 -9 -11 -3 -15 5 -3 15 1 22 9 14 16 3 20 -19 6z"/>
<path d="M9176 7161 c-4 -5 1 -8 9 -7 21 3 31 16 12 16 -9 0 -18 -4 -21 -9z"/>
<path d="M9150 7100 c0 -5 7 -10 16 -10 8 0 12 5 9 10 -3 6 -10 10 -16 10 -5
0 -9 -4 -9 -10z"/>
<path d="M9232 7095 c4 -4 3 -14 -3 -22 -7 -8 -8 -13 -1 -13 15 0 23 28 9 36
-7 4 -9 4 -5 -1z"/>
<path d="M2765 7040 c-7 -11 22 -26 32 -16 4 3 -1 6 -11 6 -9 0 -14 5 -11 10
3 6 4 10 1 10 -3 0 -8 -5 -11 -10z"/>
<path d="M2730 7021 c0 -6 4 -13 10 -16 6 -3 7 1 4 9 -7 18 -14 21 -14 7z"/>
<path d="M2774 6985 c-10 -8 -14 -14 -9 -14 6 0 19 6 29 14 11 8 15 15 10 15
-6 0 -19 -7 -30 -15z"/>
<path d="M2700 6915 c0 -8 2 -15 4 -15 2 0 6 7 10 15 3 8 1 15 -4 15 -6 0 -10
-7 -10 -15z"/>
<path d="M9235 6910 c-3 -5 -1 -10 4 -10 6 0 11 5 11 10 0 6 -2 10 -4 10 -3 0
-8 -4 -11 -10z"/>
<path d="M9227 6883 c-3 -5 -1 -17 4 -28 6 -17 8 -17 8 -2 1 9 6 17 12 17 5 0
7 5 4 10 -7 12 -22 13 -28 3z"/>
<path d="M2705 6830 c4 -6 11 -8 16 -5 14 9 11 15 -7 15 -8 0 -12 -5 -9 -10z"/>
<path d="M9279 6817 c5 -5 19 -7 32 -5 20 3 19 5 -9 9 -20 3 -29 2 -23 -4z"/>
<path d="M9296 6791 c-3 -5 1 -11 9 -14 9 -4 12 -1 8 9 -6 16 -10 17 -17 5z"/>
<path d="M2698 6773 c7 -3 16 -2 19 1 4 3 -2 6 -13 5 -11 0 -14 -3 -6 -6z"/>
<path d="M2677 6739 c7 -9 10 -19 6 -22 -3 -4 -2 -7 4 -7 12 0 26 30 18 38 -3
3 -5 0 -5 -8 0 -10 -4 -10 -17 1 -16 12 -17 12 -6 -2z"/>
<path d="M2717 6725 c-3 -7 0 -12 8 -11 22 3 27 13 11 19 -8 3 -17 0 -19 -8z"/>
<path d="M9285 6730 c3 -5 8 -10 11 -10 2 0 4 5 4 10 0 6 -5 10 -11 10 -5 0
-7 -4 -4 -10z"/>
<path d="M9256 6698 c3 -5 10 -6 15 -3 13 9 11 12 -6 12 -8 0 -12 -4 -9 -9z"/>
<path d="M9327 6675 c-4 -8 -3 -16 1 -19 4 -3 9 4 9 15 2 23 -3 25 -10 4z"/>
<path d="M9290 6655 c-11 -13 -10 -14 4 -9 9 3 16 10 16 15 0 13 -6 11 -20 -6z"/>
<path d="M2695 6651 c-3 -5 -2 -12 3 -15 5 -3 9 1 9 9 0 17 -3 19 -12 6z"/>
<path d="M9313 6626 c3 -8 1 -17 -6 -20 -8 -3 -8 -5 -1 -5 6 -1 17 5 23 13 9
11 8 15 -5 20 -11 4 -15 2 -11 -8z"/>
<path d="M9355 6600 c3 -5 8 -10 11 -10 2 0 4 5 4 10 0 6 -5 10 -11 10 -5 0
-7 -4 -4 -10z"/>
<path d="M9334 6579 c-4 -8 -3 -10 4 -5 8 5 12 0 12 -13 0 -21 14 -28 24 -12
3 4 -3 16 -13 25 -14 13 -21 14 -27 5z"/>
<path d="M9375 6513 c3 -3 0 -12 -7 -20 -9 -11 -8 -18 4 -30 14 -14 16 -12 14
15 -1 17 -5 33 -9 36 -4 3 -5 3 -2 -1z"/>
<path d="M2686 6485 c4 -8 8 -15 10 -15 2 0 4 7 4 15 0 8 -4 15 -10 15 -5 0
-7 -7 -4 -15z"/>
<path d="M9335 6480 c-3 -5 -1 -10 4 -10 6 0 11 5 11 10 0 6 -2 10 -4 10 -3 0
-8 -4 -11 -10z"/>
<path d="M2625 6450 c-3 -5 -1 -10 4 -10 6 0 11 5 11 10 0 6 -2 10 -4 10 -3 0
-8 -4 -11 -10z"/>
<path d="M2672 6447 c-8 -10 -6 -13 7 -13 11 0 17 6 14 13 -3 7 -6 13 -8 13
-1 0 -7 -6 -13 -13z"/>
<path d="M2680 6385 c-7 -9 -8 -15 -2 -15 5 0 12 7 16 15 3 8 4 15 2 15 -2 0
-9 -7 -16 -15z"/>
<path d="M9355 6331 c-7 -24 2 -44 16 -36 9 6 7 40 -3 50 -3 4 -9 -3 -13 -14z"/>
<path d="M2610 6326 c0 -2 7 -7 16 -10 8 -3 12 -2 9 4 -6 10 -25 14 -25 6z"/>
<path d="M2654 6318 c3 -15 26 -23 26 -8 0 6 -4 9 -9 6 -5 -4 -12 -1 -14 4 -3
6 -4 5 -3 -2z"/>
<path d="M2613 6235 c-7 -8 -13 -20 -13 -26 0 -7 9 -2 20 11 11 13 20 25 20
27 0 8 -16 1 -27 -12z"/>
<path d="M9333 6243 c-17 -6 -16 -21 1 -38 17 -18 28 -8 16 15 -5 10 -6 20 -3
24 7 7 4 7 -14 -1z"/>
<path d="M2644 6200 c0 -11 4 -20 8 -20 4 0 8 9 8 20 0 11 -4 20 -8 20 -4 0
-8 -9 -8 -20z"/>
<path d="M2616 5982 c-8 -13 11 -35 23 -28 6 4 10 15 10 24 -1 15 -2 15 -6 -1
-2 -9 -9 -15 -14 -11 -5 3 -7 10 -4 15 4 5 4 9 1 9 -3 0 -7 -4 -10 -8z"/>
<path d="M2655 5920 c3 -5 8 -10 11 -10 2 0 4 5 4 10 0 6 -5 10 -11 10 -5 0
-7 -4 -4 -10z"/>
<path d="M9394 5857 c1 -12 6 -26 11 -30 6 -6 6 -10 -2 -14 -15 -6 -17 -33 -3
-33 6 0 11 6 11 13 1 6 3 24 4 39 2 15 -2 31 -9 37 -9 8 -12 5 -12 -12z"/>
<path d="M2595 5860 c3 -5 8 -10 11 -10 2 0 4 5 4 10 0 6 -5 10 -11 10 -5 0
-7 -4 -4 -10z"/>
<path d="M9358 5853 c6 -2 18 -2 25 0 6 3 1 5 -13 5 -14 0 -19 -2 -12 -5z"/>
<path d="M9371 5784 c0 -11 3 -14 6 -6 3 7 2 16 -1 19 -3 4 -6 -2 -5 -13z"/>
<path d="M2586 5737 c3 -10 9 -15 12 -12 3 3 0 11 -7 18 -10 9 -11 8 -5 -6z"/>
<path d="M2637 5728 c-17 -18 -17 -19 0 -16 11 2 19 -4 21 -17 5 -28 18 -39
27 -24 5 8 4 10 -3 5 -7 -4 -12 0 -13 11 -1 24 -7 54 -11 57 -2 2 -11 -6 -21
-16z"/>
<path d="M2637 5683 c-4 -3 -7 -11 -7 -17 0 -6 5 -5 12 2 6 6 9 14 7 17 -3 3
-9 2 -12 -2z"/>
<path d="M2611 5664 c0 -11 3 -14 6 -6 3 7 2 16 -1 19 -3 4 -6 -2 -5 -13z"/>
<path d="M2610 5563 c0 -6 5 -15 11 -19 8 -5 8 -8 0 -14 -8 -4 -9 -15 -3 -30
9 -24 9 -23 14 8 3 19 -1 40 -8 50 -8 10 -14 12 -14 5z"/>
<path d="M9348 5470 c-14 -25 -15 -30 -3 -30 8 0 15 5 15 12 0 6 7 20 17 30
13 14 13 18 2 18 -8 0 -22 -14 -31 -30z"/>
<path d="M2646 5477 c3 -10 9 -15 12 -12 3 3 0 11 -7 18 -10 9 -11 8 -5 -6z"/>
<path d="M9290 5435 c1 -5 7 -18 14 -28 13 -17 14 -16 19 3 3 12 1 18 -5 14
-6 -4 -14 0 -19 7 -5 8 -9 10 -9 4z"/>
<path d="M9352 5405 c0 -16 2 -22 5 -12 2 9 2 23 0 30 -3 6 -5 -1 -5 -18z"/>
<path d="M2660 5392 c0 -6 -7 -9 -15 -6 -16 6 -21 -11 -6 -20 11 -7 36 22 27
31 -3 3 -6 1 -6 -5z"/>
<path d="M9315 5369 c-4 -6 -5 -12 -2 -15 2 -3 7 2 10 11 7 17 1 20 -8 4z"/>
<path d="M2670 5330 c-9 -6 -10 -10 -3 -10 6 0 15 5 18 10 8 12 4 12 -15 0z"/>
<path d="M2705 5330 c4 -6 11 -8 16 -5 14 9 11 15 -7 15 -8 0 -12 -5 -9 -10z"/>
<path d="M9320 5305 c7 -9 10 -19 6 -22 -4 -4 -11 -1 -15 6 -5 8 -11 9 -15 3
-3 -5 1 -13 10 -16 27 -10 34 -7 34 19 0 16 -6 25 -16 25 -14 0 -14 -3 -4 -15z"/>
<path d="M2657 5274 c2 -7 11 -10 19 -7 19 7 18 10 -5 16 -13 3 -18 1 -14 -9z"/>
<path d="M2660 5240 c0 -5 7 -7 15 -4 8 4 15 8 15 10 0 2 -7 4 -15 4 -8 0 -15
-4 -15 -10z"/>
<path d="M9280 5241 c0 -5 5 -13 10 -16 6 -3 10 -2 10 4 0 5 -4 13 -10 16 -5
3 -10 2 -10 -4z"/>
<path d="M2720 5232 c0 -7 -10 -13 -22 -13 -19 -1 -20 -2 -4 -6 20 -5 44 12
33 24 -4 3 -7 1 -7 -5z"/>
<path d="M2758 5193 c7 -3 16 -2 19 1 4 3 -2 6 -13 5 -11 0 -14 -3 -6 -6z"/>
<path d="M9256 5175 c4 -8 1 -15 -6 -15 -6 0 -8 -4 -5 -10 3 -5 -1 -10 -10
-10 -15 0 -15 -11 1 -72 5 -17 -31 -45 -51 -39 -5 1 -4 -4 4 -11 11 -10 14
-10 18 0 3 6 12 12 21 12 15 0 15 -2 2 -10 -10 -6 -11 -10 -2 -10 6 0 11 -6
10 -12 -2 -7 4 -13 12 -13 9 0 17 14 21 35 3 19 9 49 13 65 4 17 3 23 -2 12
-7 -16 -9 -16 -27 -2 -14 11 -15 13 -4 9 10 -3 20 0 24 6 5 8 10 8 20 0 9 -8
14 -6 18 9 3 15 0 17 -16 13 -13 -3 -18 -1 -13 6 3 6 1 12 -6 15 -7 2 -3 2 9
1 12 -2 25 0 28 6 4 6 -5 10 -19 10 -14 0 -26 5 -26 10 0 6 -4 10 -10 10 -5 0
-7 -7 -4 -15z"/>
<path d="M2696 5137 c3 -10 9 -15 12 -12 3 3 0 11 -7 18 -10 9 -11 8 -5 -6z"/>
<path d="M2720 5015 c0 -5 5 -17 10 -25 5 -8 10 -10 10 -5 0 6 -5 17 -10 25
-5 8 -10 11 -10 5z"/>
<path d="M2751 4984 c0 -11 3 -14 6 -6 3 7 2 16 -1 19 -3 4 -6 -2 -5 -13z"/>
<path d="M9216 4963 c-9 -23 10 -41 27 -24 10 11 9 13 -6 8 -15 -6 -17 -3 -12
13 8 24 0 27 -9 3z"/>
<path d="M2846 4862 c-2 -4 -1 -14 5 -22 7 -12 9 -10 9 8 0 23 -5 28 -14 14z"/>
<path d="M2880 4830 c0 -5 5 -10 11 -10 5 0 7 5 4 10 -3 6 -8 10 -11 10 -2 0
-4 -4 -4 -10z"/>
<path d="M9172 4793 c2 -9 10 -18 18 -20 12 -4 12 -3 1 5 -11 8 -10 12 5 21
18 10 17 10 -4 11 -17 0 -23 -5 -20 -17z"/>
<path d="M9162 4764 c10 -10 20 -16 22 -13 3 3 -5 11 -17 18 -21 13 -21 12 -5
-5z"/>
<path d="M9146 4703 c-6 -14 -5 -15 5 -6 7 7 10 15 7 18 -3 3 -9 -2 -12 -12z"/>
<path d="M2915 4690 c3 -5 8 -10 11 -10 2 0 4 5 4 10 0 6 -5 10 -11 10 -5 0
-7 -4 -4 -10z"/>
<path d="M9070 4676 c-14 -8 -27 -13 -30 -11 -3 2 -11 -8 -17 -22 -10 -20 -9
-22 1 -14 7 6 16 8 19 4 4 -3 7 1 7 10 0 10 4 17 8 17 5 0 17 7 28 15 24 18
17 19 -16 1z"/>
<path d="M9119 4668 c7 -9 10 -22 6 -28 -3 -5 -2 -10 4 -10 20 0 20 18 -2 36
-17 15 -19 15 -8 2z"/>
<path d="M2934 4655 c11 -8 22 -12 25 -9 6 6 -19 24 -34 24 -5 -1 -1 -7 9 -15z"/>
<path d="M9085 4630 c3 -5 8 -10 11 -10 2 0 4 5 4 10 0 6 -5 10 -11 10 -5 0
-7 -4 -4 -10z"/>
<path d="M2946 4545 c-3 -8 -1 -15 4 -15 6 0 10 7 10 15 0 8 -2 15 -4 15 -2 0
-6 -7 -10 -15z"/>
<path d="M2930 4487 c0 -9 4 -18 9 -21 5 -4 8 1 7 9 -3 21 -16 31 -16 12z"/>
<path d="M2985 4450 c-3 -5 -2 -10 4 -10 5 0 13 5 16 10 3 6 2 10 -4 10 -5 0
-13 -4 -16 -10z"/>
<path d="M8985 4451 c-3 -6 3 -9 14 -8 11 0 17 5 15 9 -7 11 -22 10 -29 -1z"/>
<path d="M2987 4394 c2 -7 11 -10 19 -7 19 7 18 10 -5 16 -13 3 -18 1 -14 -9z"/>
<path d="M3070 4360 c6 -11 13 -20 16 -20 2 0 0 9 -6 20 -6 11 -13 20 -16 20
-2 0 0 -9 6 -20z"/>
<path d="M8991 4354 c0 -11 3 -14 6 -6 3 7 2 16 -1 19 -3 4 -6 -2 -5 -13z"/>
<path d="M8926 4317 c3 -10 9 -15 12 -12 3 3 0 11 -7 18 -10 9 -11 8 -5 -6z"/>
<path d="M8898 4303 c7 -3 16 -2 19 1 4 3 -2 6 -13 5 -11 0 -14 -3 -6 -6z"/>
<path d="M3045 4290 c3 -4 14 -10 25 -13 11 -3 18 -2 15 3 -3 4 -14 10 -25 13
-11 3 -18 2 -15 -3z"/>
<path d="M3140 4286 c0 -2 8 -10 18 -17 15 -13 16 -12 3 4 -13 16 -21 21 -21
13z"/>
<path d="M8850 4260 c0 -4 9 -10 20 -13 11 -3 20 -2 20 3 0 4 -9 10 -20 13
-11 3 -20 2 -20 -3z"/>
<path d="M3146 4228 c3 -5 10 -6 15 -3 13 9 11 12 -6 12 -8 0 -12 -4 -9 -9z"/>
<path d="M8856 4221 c-4 -5 -2 -12 3 -15 5 -4 12 -2 15 3 4 5 2 12 -3 15 -5 4
-12 2 -15 -3z"/>
<path d="M3100 4191 c0 -6 5 -13 10 -16 6 -4 8 -10 5 -15 -3 -5 -1 -11 4 -14
18 -11 17 19 -1 37 -10 9 -18 13 -18 8z"/>
<path d="M8850 4159 c0 -5 5 -7 10 -4 6 3 10 8 10 11 0 2 -4 4 -10 4 -5 0 -10
-5 -10 -11z"/>
<path d="M3224 4109 c-6 -10 22 -30 31 -21 5 4 5 -1 2 -10 -4 -10 -2 -18 3
-18 5 0 8 13 7 29 -1 22 -7 29 -20 28 -10 -1 -20 -4 -23 -8z"/>
<path d="M8737 4076 c-4 -10 -1 -13 8 -9 8 3 12 9 9 14 -7 12 -11 11 -17 -5z"/>
<path d="M3280 4050 c0 -5 7 -10 15 -10 8 0 15 -7 15 -16 0 -14 -3 -14 -15 -4
-17 14 -31 8 -20 -9 9 -15 30 -14 44 3 8 10 9 16 1 21 -6 3 -8 11 -5 16 4 5
-3 9 -14 9 -12 0 -21 -4 -21 -10z"/>
<path d="M8704 4052 c-9 -5 -8 -11 2 -20 12 -11 14 -9 14 8 0 22 0 23 -16 12z"/>
<path d="M3190 4039 c0 -5 5 -7 10 -4 6 3 10 8 10 11 0 2 -4 4 -10 4 -5 0 -10
-5 -10 -11z"/>
<path d="M3224 4042 c4 -7 2 -21 -5 -30 -12 -15 -11 -15 6 0 16 15 17 20 6 30
-11 11 -13 10 -7 0z"/>
<path d="M3286 3982 c-3 -5 1 -9 9 -9 8 0 15 4 15 9 0 4 -4 8 -9 8 -6 0 -12
-4 -15 -8z"/>
<path d="M8638 3903 c6 -2 18 -2 25 0 6 3 1 5 -13 5 -14 0 -19 -2 -12 -5z"/>
<path d="M8460 3762 c0 -5 5 -13 12 -20 9 -9 7 -13 -5 -18 -9 -3 -14 -10 -11
-16 6 -10 33 20 34 38 0 7 -7 14 -15 18 -8 3 -15 2 -15 -2z"/>
<path d="M3508 3723 c7 -3 16 -2 19 1 4 3 -2 6 -13 5 -11 0 -14 -3 -6 -6z"/>
<path d="M3605 3650 c3 -5 8 -10 11 -10 2 0 4 5 4 10 0 6 -5 10 -11 10 -5 0
-7 -4 -4 -10z"/>
<path d="M8315 3635 c-10 -13 -23 -22 -26 -19 -4 2 -10 0 -14 -5 -7 -13 31
-33 53 -29 15 3 15 4 0 18 -15 14 -15 17 0 33 8 9 13 19 11 21 -2 2 -13 -7
-24 -19z"/>
<path d="M8390 3630 c0 -5 7 -10 15 -10 8 0 15 5 15 10 0 6 -7 10 -15 10 -8 0
-15 -4 -15 -10z"/>
<path d="M3618 3623 c7 -3 16 -2 19 1 4 3 -2 6 -13 5 -11 0 -14 -3 -6 -6z"/>
<path d="M3576 3598 c3 -5 10 -6 15 -3 13 9 11 12 -6 12 -8 0 -12 -4 -9 -9z"/>
<path d="M8377 3570 c-3 -11 -2 -20 3 -20 12 0 21 28 11 35 -5 2 -11 -4 -14
-15z"/>
<path d="M8273 3562 c-9 -15 -8 -19 3 -19 8 0 14 9 14 19 0 10 -1 18 -3 18 -1
0 -7 -8 -14 -18z"/>
<path d="M8316 3558 c3 -5 10 -6 15 -3 13 9 11 12 -6 12 -8 0 -12 -4 -9 -9z"/>
<path d="M3611 3543 c6 -7 15 -13 20 -13 5 0 6 6 3 13 -3 8 -11 14 -19 14 -11
0 -12 -4 -4 -14z"/>
<path d="M8325 3521 c-3 -5 -2 -12 3 -15 5 -3 9 1 9 9 0 17 -3 19 -12 6z"/>
<path d="M8276 3492 c-9 -16 9 -29 29 -21 19 7 19 8 -3 8 -13 1 -20 5 -17 11
3 6 4 10 1 10 -3 0 -7 -4 -10 -8z"/>
<path d="M3775 3470 c3 -5 8 -10 11 -10 2 0 4 5 4 10 0 6 -5 10 -11 10 -5 0
-7 -4 -4 -10z"/>
<path d="M8237 3447 c4 -6 0 -8 -11 -4 -14 5 -15 3 -6 -13 8 -15 6 -21 -7 -29
-20 -12 -13 -14 11 -5 9 3 16 14 16 24 0 10 8 20 18 22 14 3 13 5 -6 10 -14 4
-20 2 -15 -5z"/>
<path d="M3850 3381 c0 -6 4 -12 8 -15 5 -3 9 1 9 9 0 8 -4 15 -9 15 -4 0 -8
-4 -8 -9z"/>
<path d="M3945 3360 c3 -5 8 -10 11 -10 2 0 4 5 4 10 0 6 -5 10 -11 10 -5 0
-7 -4 -4 -10z"/>
<path d="M8110 3356 c0 -9 30 -14 35 -6 4 6 -3 10 -14 10 -12 0 -21 -2 -21 -4z"/>
<path d="M8098 3323 c7 -3 16 -2 19 1 4 3 -2 6 -13 5 -11 0 -14 -3 -6 -6z"/>
<path d="M4030 3266 c0 -9 5 -16 10 -16 6 0 10 4 10 9 0 6 -4 13 -10 16 -5 3
-10 -1 -10 -9z"/>
<path d="M4034 3228 c-4 -6 -3 -8 3 -5 6 4 16 0 23 -8 7 -8 22 -14 34 -14 17
1 17 2 4 6 -10 2 -18 9 -18 14 0 6 -4 7 -10 4 -5 -3 -10 -1 -10 4 0 15 -17 14
-26 -1z"/>
<path d="M7920 3225 c0 -8 5 -15 10 -15 6 0 10 7 10 15 0 8 -4 15 -10 15 -5 0
-10 -7 -10 -15z"/>
<path d="M7850 3194 c0 -8 5 -12 10 -9 6 4 8 11 5 16 -9 14 -15 11 -15 -7z"/>
<path d="M4190 3170 c0 -6 7 -10 15 -10 8 0 15 2 15 4 0 2 -7 6 -15 10 -8 3
-15 1 -15 -4z"/>
<path d="M4181 3128 c0 -13 3 -17 6 -10 2 6 10 9 16 5 7 -4 6 1 -2 10 -18 22
-21 21 -20 -5z"/>
<path d="M4260 3130 c0 -13 18 -22 24 -11 3 5 -1 11 -9 15 -8 3 -15 1 -15 -4z"/>
<path d="M7670 3115 c0 -8 -6 -15 -12 -15 -9 0 -8 -3 2 -10 17 -11 19 -9 25
19 2 11 0 21 -6 21 -5 0 -9 -7 -9 -15z"/>
<path d="M7744 3111 c-12 -28 -14 -52 -4 -46 5 3 10 12 10 20 0 8 5 17 12 21
6 4 8 3 4 -4 -4 -7 1 -10 14 -9 11 1 20 7 20 15 0 7 -4 10 -10 7 -5 -3 -10 -2
-10 3 0 15 -29 10 -36 -7z"/>
<path d="M4213 3105 c-8 -8 -2 -11 22 -11 34 1 38 10 7 18 -10 3 -23 0 -29 -7z"/>
<path d="M4313 3105 c-3 -9 -3 -18 -1 -21 3 -3 8 4 11 16 6 23 -1 27 -10 5z"/>
<path d="M4335 3099 c-4 -6 -5 -12 -2 -15 2 -3 7 2 10 11 7 17 1 20 -8 4z"/>
<path d="M4272 3081 c-11 -7 -11 -9 2 -14 10 -4 16 -1 16 8 0 17 -1 17 -18 6z"/>
<path d="M4367 3053 c-13 -12 -7 -23 11 -22 10 0 12 3 4 6 -6 2 -10 9 -6 14 6
10 0 12 -9 2z"/>
<path d="M4456 3037 c3 -10 9 -15 12 -12 3 3 0 11 -7 18 -10 9 -11 8 -5 -6z"/>
<path d="M7690 3041 c0 -7 -5 -9 -12 -5 -7 5 -8 3 -3 -5 5 -9 10 -10 18 -2 6
6 8 14 4 18 -4 3 -7 1 -7 -6z"/>
<path d="M7490 3030 c0 -5 5 -10 10 -10 6 0 10 5 10 10 0 6 -4 10 -10 10 -5 0
-10 -4 -10 -10z"/>
<path d="M7650 3031 c0 -6 4 -13 10 -16 6 -3 7 1 4 9 -7 18 -14 21 -14 7z"/>
<path d="M4409 3003 c-5 -28 -2 -33 22 -42 34 -12 47 9 18 27 -15 10 -19 9
-20 0 -1 -7 -4 1 -8 17 l-7 30 -5 -32z"/>
<path d="M4346 3008 c3 -5 10 -6 15 -3 13 9 11 12 -6 12 -8 0 -12 -4 -9 -9z"/>
<path d="M4563 2966 c19 -19 40 -21 35 -3 -3 6 -15 14 -28 15 -21 4 -22 2 -7
-12z"/>
<path d="M4485 2950 c-3 -5 -1 -10 4 -10 6 0 11 5 11 10 0 6 -2 10 -4 10 -3 0
-8 -4 -11 -10z"/>
<path d="M7487 2953 c-3 -5 1 -13 8 -20 10 -10 14 -9 18 1 8 21 -15 37 -26 19z"/>
<path d="M7432 2943 c-17 -7 -36 -43 -22 -43 5 0 10 8 10 18 1 15 2 15 15 -2
14 -19 15 -19 13 7 -1 15 -3 27 -3 26 0 0 -6 -3 -13 -6z"/>
<path d="M4660 2931 c0 -6 4 -12 8 -15 5 -3 9 1 9 9 0 8 -4 15 -9 15 -4 0 -8
-4 -8 -9z"/>
<path d="M7200 2890 c-12 -7 -10 -9 7 -7 12 0 19 5 17 9 -6 10 -6 10 -24 -2z"/>
<path d="M7257 2856 c-17 -13 -16 -14 2 -19 15 -3 19 0 18 14 -1 11 -1 19 -2
19 0 0 -8 -7 -18 -14z"/>
<path d="M7045 2850 c-2 -3 5 -7 16 -7 10 -1 19 2 19 6 0 9 -29 10 -35 1z"/>
<path d="M7187 2830 c3 -11 7 -20 9 -20 2 0 4 9 4 20 0 11 -4 20 -9 20 -5 0
-7 -9 -4 -20z"/>
<path d="M4995 2820 c3 -5 8 -10 11 -10 2 0 4 5 4 10 0 6 -5 10 -11 10 -5 0
-7 -4 -4 -10z"/>
<path d="M6955 2803 c3 -12 1 -24 -5 -28 -5 -3 -10 1 -10 10 0 20 -22 15 -28
-6 -3 -8 -1 -11 3 -6 5 4 17 0 27 -10 17 -15 18 -15 18 0 0 17 11 21 39 18 7
-2 10 3 6 9 -4 6 -13 9 -21 6 -7 -3 -18 3 -24 12 -9 15 -10 14 -5 -5z"/>
<path d="M4895 2780 c3 -5 8 -10 11 -10 2 0 4 5 4 10 0 6 -5 10 -11 10 -5 0
-7 -4 -4 -10z"/>
<path d="M5096 2755 c4 -8 7 -15 9 -15 2 0 5 7 9 15 3 9 0 15 -9 15 -9 0 -12
-6 -9 -15z"/>
<path d="M6985 2760 c3 -5 14 -10 23 -10 15 0 15 2 2 10 -20 13 -33 13 -25 0z"/>
<path d="M5092 2710 c0 -14 2 -19 5 -12 2 6 2 18 0 25 -3 6 -5 1 -5 -13z"/>
<path d="M5465 2719 c-4 -6 -5 -12 -2 -15 2 -3 7 2 10 11 7 17 1 20 -8 4z"/>
<path d="M6887 2719 c7 -7 15 -10 18 -7 3 3 -2 9 -12 12 -14 6 -15 5 -6 -5z"/>
<path d="M6690 2710 c0 -5 4 -10 9 -10 6 0 13 5 16 10 3 6 -1 10 -9 10 -9 0
-16 -4 -16 -10z"/>
<path d="M5258 2703 c7 -3 16 -2 19 1 4 3 -2 6 -13 5 -11 0 -14 -3 -6 -6z"/>
<path d="M5215 2690 c10 -16 45 -32 45 -20 0 5 -7 10 -15 10 -8 0 -15 5 -15
10 0 6 -5 10 -11 10 -5 0 -7 -4 -4 -10z"/>
<path d="M5565 2680 c-10 -11 -13 -20 -7 -20 21 0 27 5 24 18 -5 20 15 13 21
-8 5 -19 -14 -45 -26 -34 -3 3 -13 2 -22 -4 -16 -8 -16 -10 -1 -15 9 -4 16 -2
16 3 0 5 9 7 20 5 25 -5 39 38 20 60 -16 20 -23 19 -45 -5z"/>
<path d="M5765 2690 c3 -5 8 -10 11 -10 2 0 4 5 4 10 0 6 -5 10 -11 10 -5 0
-7 -4 -4 -10z"/>
<path d="M6246 2693 c-3 -4 -6 -11 -6 -16 0 -6 3 -7 7 -4 3 4 11 2 18 -3 8 -7
12 -5 12 5 0 15 -21 27 -31 18z"/>
<path d="M6345 2680 c21 -24 26 -25 19 -6 -3 8 -13 17 -22 21 -13 5 -13 2 3
-15z"/>
<path d="M5465 2680 c-3 -5 -2 -10 4 -10 5 0 13 5 16 10 3 6 2 10 -4 10 -5 0
-13 -4 -16 -10z"/>
<path d="M5980 2668 c0 -19 2 -20 10 -8 13 19 13 30 0 30 -5 0 -10 -10 -10
-22z"/>
<path d="M6618 2683 c7 -3 16 -2 19 1 4 3 -2 6 -13 5 -11 0 -14 -3 -6 -6z"/>
<path d="M5630 2671 c0 -6 5 -13 10 -16 6 -3 10 1 10 9 0 9 -4 16 -10 16 -5 0
-10 -4 -10 -9z"/>
<path d="M6457 2660 c-20 -24 -6 -27 17 -4 18 17 20 24 8 24 -4 0 -15 -9 -25
-20z"/>
<path d="M5285 2660 c3 -5 12 -7 20 -3 21 7 19 13 -6 13 -11 0 -18 -4 -14 -10z"/>
<path d="M5326 2654 c-5 -14 -4 -15 9 -4 17 14 19 20 6 20 -5 0 -12 -7 -15
-16z"/>
<path d="M6010 2653 c0 -10 4 -14 8 -8 4 6 11 13 16 18 5 4 2 7 -7 7 -10 0
-17 -8 -17 -17z"/>
<path d="M6100 2661 c0 -3 4 -12 9 -20 11 -16 32 -6 25 13 -5 12 -34 19 -34 7z"/>
<path d="M6196 2645 c-8 -32 1 -50 18 -36 7 6 15 9 17 6 3 -2 5 6 5 20 0 13
-4 21 -9 18 -5 -3 -13 0 -17 7 -5 8 -10 3 -14 -15z m34 -9 c0 -3 -4 -8 -10
-11 -5 -3 -10 -1 -10 4 0 6 5 11 10 11 6 0 10 -2 10 -4z"/>
<path d="M5500 2650 c0 -13 18 -22 24 -11 3 5 -1 11 -9 15 -8 3 -15 1 -15 -4z"/>
<path d="M6611 2644 c0 -11 3 -14 6 -6 3 7 2 16 -1 19 -3 4 -6 -2 -5 -13z"/>
<path d="M6665 2650 c-3 -6 1 -7 9 -4 18 7 21 14 7 14 -6 0 -13 -4 -16 -10z"/>
<path d="M5738 2643 c7 -3 16 -2 19 1 4 3 -2 6 -13 5 -11 0 -14 -3 -6 -6z"/>
<path d="M5671 2624 c0 -11 3 -14 6 -6 3 7 2 16 -1 19 -3 4 -6 -2 -5 -13z"/>
<path d="M5836 2625 c-3 -8 -1 -15 4 -15 6 0 10 7 10 15 0 8 -2 15 -4 15 -2 0
-6 -7 -10 -15z"/>
<path d="M5875 2630 c3 -5 8 -10 11 -10 2 0 4 5 4 10 0 6 -5 10 -11 10 -5 0
-7 -4 -4 -10z"/>
<path d="M5777 2619 c7 -7 15 -10 18 -7 3 3 -2 9 -12 12 -14 6 -15 5 -6 -5z"/>
<path d="M6046 2607 c3 -10 9 -15 12 -12 3 3 0 11 -7 18 -10 9 -11 8 -5 -6z"/>
<path d="M5870 2600 c0 -6 7 -10 15 -10 8 0 15 2 15 4 0 2 -7 6 -15 10 -8 3
-15 1 -15 -4z"/>
</g>
</svg>
